<svg xmlns="http://www.w3.org/2000/svg" xml:space="preserve" width="582.701" height="130" viewBox="0 0 154.174 34.396"><path d="M46.114 30.496v-1.245h-.61v.742c0 .573-.014.737-.063.718-.035-.014-.651-.368-1.369-.788-.718-.42-1.318-.75-1.333-.734-.016.016-.029.573-.029 1.24v1.21h.61v-.737c0-.405.008-.736.018-.736.01 0 .622.353 1.36.784.736.432 1.357.786 1.378.788.02.002.038-.557.038-1.242zm68.326-.003v-1.247l-.292.015-.292.015-.026.724-.025.723-1.22-.715a95.564 95.564 0 0 0-1.358-.788l-.14-.073v2.491h.607l.014-.737.014-.738 1.346.787c.74.433 1.352.788 1.359.789.007 0 .013-.56.013-1.246zm13.868.003v-1.245h-.607l-.014.738-.014.738-1.27-.742c-.698-.408-1.31-.764-1.359-.79-.083-.046-.089.026-.089 1.198v1.246h.607l.014-.734.014-.734 1.346.784c.74.431 1.352.784 1.36.785.006 0 .012-.56.012-1.244zm22.047 0v-1.245h-.609v.737c0 .405-.01.737-.024.737-.02 0-2.095-1.205-2.554-1.483l-.165-.1v2.497h.606l.015-.732.014-.731 1.32.777c.727.428 1.338.78 1.36.783.02.003.037-.555.037-1.24zm-96.106 1.12c.302-.063.755-.248.755-.306 0-.012-.063-.127-.14-.254-.099-.163-.162-.221-.216-.197-.443.196-.66.239-1.219.24-.488.001-.623-.016-.822-.106-.506-.229-.531-.825-.044-1.068.147-.073.313-.09.891-.089.629 0 .74.014.96.114.136.063.265.114.287.114.021 0 .102-.106.178-.237.134-.229.136-.239.043-.307-.053-.038-.256-.12-.452-.18-.514-.16-1.593-.16-2.024 0-.591.22-.856.567-.856 1.124 0 .796.624 1.216 1.814 1.222.279 0 .66-.03.845-.07zm28.226-.003c.39-.092.701-.244.774-.38.03-.057.048-.29.04-.521l-.015-.419-.851-.014-.85-.014v.511h.558c.557 0 .559 0 .559.123 0 .106-.035.13-.257.177-.14.03-.5.055-.8.055-.467 0-.58-.018-.807-.123-.556-.26-.572-.838-.03-1.102.412-.2 1.371-.185 2.122.032.084.024.119-.013.198-.207.115-.282.109-.289-.393-.403-1.15-.263-2.221-.092-2.693.43-.595.659-.18 1.582.83 1.851.366.097 1.212.1 1.615.004zm26.742-.07c.295-.114.563-.36.654-.598.026-.069.048-.478.048-.91v-.783h-.61v1.483l-.168.168c-.204.204-.444.25-1.116.217-.836-.041-.9-.124-.9-1.154v-.714h-.61v.75c0 .839.037 1.03.24 1.244.319.335.73.447 1.563.425.479-.013.672-.04.899-.128zm9.322.024c.146-.045.334-.141.42-.213.152-.128.154-.137.154-.61v-.479l-.85.014-.851.014v.457l.546.015c.536.014.546.017.546.134 0 .066-.04.137-.09.158-.157.069-1.344.09-1.572.028-.275-.075-.5-.266-.574-.489-.084-.253.053-.516.356-.683.388-.214 1.336-.202 2.113.026.09.027.123-.008.212-.213.124-.286.127-.283-.35-.397-.454-.109-1.327-.152-1.695-.084-.454.084-.93.343-1.116.608-.138.197-.154.26-.154.592 0 .335.015.393.157.59.18.248.573.49.954.587.35.089 1.44.056 1.794-.055zm22.403 0c.146-.045.334-.141.42-.213.152-.128.154-.138.154-.608v-.478h-1.676v.508h.533c.529 0 .534 0 .534.121 0 .068-.04.14-.09.16-.048.021-.377.05-.73.062-.751.028-1.075-.047-1.287-.3-.151-.18-.175-.513-.049-.693.282-.403 1.363-.486 2.396-.185.099.03.128.001.218-.21.124-.287.121-.29-.374-.403-1.405-.32-2.694.023-2.92.78-.207.687.203 1.263 1.07 1.507.35.098 1.425.07 1.801-.048zm-93.11-.08.114-.152h.95l.952-.001.127.155c.124.15.139.155.5.14l.374-.015-.958-1.204c-.527-.662-.973-1.199-.991-1.194-.04.012-1.923 2.36-1.923 2.397 0 .015.168.026.372.026.354 0 .377-.007.484-.152zm.568-.69c0-.05.468-.605.511-.605.038 0 .505.57.505.615 0 .011-.229.02-.508.02-.28 0-.508-.013-.508-.03zm8.28.385v-.457h2.286v.914h.61v-2.387h-.61v.914H56.68v-.92l-.292.016-.292.015-.014 1.181-.013 1.181h.611zm4.674 0v-.457h2.286v.914h.609v-2.387h-.609v.914h-2.286v-.914h-.61v2.387h.61zm4.673.305.109-.152h1.914l.129.152c.12.143.15.152.487.152.197 0 .359-.014.359-.03 0-.046-1.893-2.408-1.928-2.406-.025.002-1.704 2.101-1.872 2.341-.064.09-.048.095.313.095.365 0 .385-.006.49-.152zm.595-.728c.078-.13.447-.588.476-.59.016-.002.148.146.293.327l.265.33h-.537c-.435 0-.53-.012-.497-.067zm6.609.614-.015-.267-1.258-.014-1.257-.013v-1.827h-.61v2.387H73.246zm2.296-.648v-.914h1.32v-.56h-3.2v.56h1.27v1.828h.61zm3.048-.28v-1.193h-.61v2.387h.61zm9.042.915v-.28h-2.59v-.406h2.489v-.508h-2.489v-.355h2.59v-.56l-1.587.013-1.588.013-.013 1.181-.014 1.181h3.202zm3.963-.178v-.457h2.286v.914h.611l-.013-1.18-.014-1.182-.292-.015-.292-.015v.92H91.58v-.915h-.61v2.388h.61zm7.264.178v-.28h-2.591v-.406h2.49v-.508h-2.49v-.355h2.591v-.56h-3.2v2.388h3.2zm1.727-.914v-1.194h-.609v2.387h.609zm4.816.927-.015-.267-1.014-.025-1.013-.026 1.026-.88c.564-.484 1.026-.89 1.026-.902 0-.011-.777-.021-1.727-.021h-1.727v.506l.99.014.99.013-1.066.911c-.587.502-1.066.919-1.066.928 0 .009.812.016 1.806.016h1.806zm15.522.114.128-.152h1.888l.139.155c.133.149.153.154.502.14l.364-.016-.913-1.143a72.943 72.943 0 0 0-.98-1.212c-.056-.057-.201.1-.869.94-.44.555-.88 1.106-.977 1.225l-.175.215h.382c.363 0 .39-.008.511-.152zm.597-.75c.269-.349.467-.567.498-.549.02.013.145.161.278.33l.242.309h-.543c-.51 0-.539-.006-.475-.09zm11.16.636-.014-.267-1.258-.014-1.257-.013v-1.827h-.61v2.387H132.682zm1.771.114.129-.152h1.888l.13.155c.127.15.143.155.5.14l.369-.016-.97-1.212c-.801-1-.983-1.2-1.036-1.143-.153.165-1.856 2.32-1.856 2.348 0 .018.162.032.36.032.336 0 .366-.01.486-.152zm.79-.998.265-.337.172.197c.094.11.217.261.272.338l.1.14H134.962zm10.648.884-.015-.267-1.283-.014-1.283-.013v-.405h2.495l-.016-.241-.015-.241-1.232-.014-1.232-.014v-.353h2.596l-.015-.267-.016-.267-1.587-.013-1.588-.014V31.64h3.206zm-110.199-.268c1.1-.28 2.029-1.195 2.344-2.31.089-.317.093-.835.093-12.015V5.096l-.142-.417a3.291 3.291 0 0 0-1.63-1.893c-.765-.384.566-.355-16.186-.355-16.77 0-15.408-.03-16.205.36-.343.168-.515.296-.838.623-.406.411-.565.667-.806 1.296l-.109.284-.013 11.646c-.015 12.768-.032 12.014.284 12.683a3.304 3.304 0 0 0 1.521 1.549c.642.323-.535.3 16.143.306 13.458.004 15.277-.005 15.544-.073zM4.855 29.476c-.323-.1-.755-.501-.911-.846l-.121-.268V5.248l.143-.29c.156-.32.427-.58.79-.76l.235-.118h30.277l.28.133c.318.15.62.434.78.73l.108.204.014 11.602.013 11.602-.12.262a1.57 1.57 0 0 1-.703.768l-.27.15-15.139.009c-13.069.008-15.17 0-15.376-.064zm12.332-3.648c1.758-.371 3.254-1.16 4.536-2.393 2.575-2.476 3.473-6.142 2.338-9.55-1.426-4.287-5.804-6.896-10.274-6.122-3.735.646-6.673 3.51-7.453 7.264-.14.674-.192 2.198-.1 2.93.497 3.945 3.516 7.163 7.398 7.886.794.148.808.15 1.926.13.85-.013 1.116-.037 1.629-.145zM14.256 24.3c-3.306-.54-5.793-2.988-6.353-6.25-.088-.515-.1-.744-.076-1.473.03-.942.098-1.338.365-2.141 1.566-4.717 7.214-6.662 11.35-3.91a7.654 7.654 0 0 1 3.31 5.296c.076.58.031 1.999-.08 2.507-.66 3.01-2.913 5.255-5.913 5.897-.645.138-1.98.176-2.603.074zm-2.401-2.993c1.01-.269 2.124-1.344 2.847-2.749l.183-.356.472.003.472.003.207.393c.36.683.714 1.16 1.269 1.71.803.795 1.473 1.11 2.244 1.055.485-.035.822-.211 1.223-.64.524-.558.845-1.35.791-1.948-.074-.817-.75-1.536-1.806-1.921-.66-.241-1.16-.319-2.136-.332l-.884-.012-.065-.19a1.596 1.596 0 0 0-.226-.39c-.145-.18-.154-.21-.087-.286.312-.36.865-1.495 1.047-2.151.35-1.264.191-2.26-.457-2.86-.451-.417-.725-.506-1.57-.508-.896-.003-1.196.097-1.655.554-.47.468-.554.72-.551 1.653.002.654.018.788.142 1.194.168.55.546 1.357.866 1.853l.235.362-.152.188c-.083.103-.182.28-.221.391l-.07.203-.605-.017c-2.641-.074-4.484 1.141-4.19 2.763.114.635.68 1.516 1.175 1.828.429.27.979.347 1.502.207zm-.76-1.718a2.483 2.483 0 0 1-.239-.415c-.098-.223-.1-.25-.027-.363.107-.163.44-.35.844-.472.363-.11 1.304-.245 1.355-.194.018.018-.058.162-.167.322-.446.649-1.086 1.207-1.452 1.267-.162.026-.195.01-.313-.145zm7.942.05c-.125-.063-.39-.274-.588-.47-.355-.352-.818-.974-.765-1.027.05-.05.98.083 1.335.192.415.126.752.312.857.471.067.103.067.142-.002.344-.1.296-.354.603-.497.603-.061 0-.214-.051-.34-.113zm-3.85-5.793c-.263-.537-.377-.945-.402-1.435-.033-.63-.008-.66.57-.66.376 0 .45.014.511.098.106.145.092.75-.027 1.18-.094.337-.427 1.135-.475 1.135-.011 0-.091-.143-.176-.318zm18.531 11.64c.564-.316.522-1.152-.07-1.421-.196-.089-.396-.095-3.338-.096h-3.129l-.22.116a.818.818 0 0 0-.44.79c.027.253.147.44.39.605l.168.114h3.224c3.19 0 3.226-.001 3.415-.108zm-.051-3.969c.299-.153.42-.33.445-.658.025-.311-.095-.54-.39-.738l-.17-.115H27.078l-.168.114c-.243.166-.363.352-.39.604a.803.803 0 0 0 .44.793l.226.114h6.256zm.056-4.014c.29-.196.414-.428.39-.728-.026-.323-.186-.558-.466-.686-.195-.088-.395-.094-3.334-.095l-3.126-.001-.227.114a.803.803 0 0 0-.438.793c.026.253.146.439.389.604l.168.114h6.472zm-.076-3.893a.785.785 0 0 0 .467-.667.776.776 0 0 0-.396-.754c-.189-.107-.225-.108-3.415-.108h-3.224l-.168.114c-.243.166-.363.352-.39.604a.818.818 0 0 0 .44.79l.22.118 3.13-.001c2.94-.001 3.14-.007 3.336-.096zm.072-4.082c.243-.165.363-.35.392-.605a.777.777 0 0 0-.32-.734l-.191-.147-3.23-.012-3.23-.013-.203.115c-.548.308-.551 1.081-.006 1.414.15.092.306.096 3.39.096h3.23l.168-.114zm19.362 15.25c2.272-.23 4.182-1.187 5.82-2.916 1.594-1.682 2.41-3.599 2.533-5.95.14-2.665-.807-5.107-2.721-7.018-1.58-1.576-3.306-2.44-5.411-2.707-.534-.067-1.888-.067-2.45.001-2.075.251-3.878 1.168-5.466 2.777-1.78 1.805-2.637 3.926-2.636 6.52.001 1.551.261 2.75.876 4.038.729 1.528 2.09 3.027 3.607 3.972 1.651 1.03 3.77 1.494 5.848 1.283zm-2.238-2.565a6.628 6.628 0 0 1-3.418-1.742c-1.465-1.394-2.175-3.019-2.175-4.979 0-1.757.547-3.228 1.674-4.503 1.045-1.181 2.32-1.936 3.787-2.24.637-.132 2.103-.134 2.718-.004 1.378.292 2.479.89 3.479 1.889 1.086 1.085 1.708 2.278 1.933 3.71.104.664.077 2.012-.051 2.588-.33 1.471-1.007 2.607-2.211 3.702-.808.734-1.864 1.278-2.981 1.534-.504.116-2.194.143-2.755.045zm14.205 2.474c.26-.133.539-.455.616-.712.041-.14.059-1.065.059-3.188v-2.992l.811-.81c.497-.497.83-.792.857-.762.024.027 1.398 1.89 3.054 4.138 1.656 2.25 3.07 4.141 3.144 4.204.199.168.637.285.936.25.67-.08 1.159-.704 1.088-1.388a1.32 1.32 0 0 0-.125-.441c-.053-.09-1.48-2.038-3.169-4.328-1.69-2.29-3.09-4.195-3.113-4.233-.03-.05.839-.952 3.108-3.226 3.497-3.504 3.356-3.336 3.3-3.949a1.181 1.181 0 0 0-.566-.933c-.34-.21-.868-.245-1.202-.078-.158.078-1.395 1.281-4.173 4.055l-3.948 3.943-.014-3.635-.014-3.634-.154-.25a1.234 1.234 0 0 0-.43-.415c-.241-.145-.32-.166-.635-.166-.316 0-.394.02-.635.166a1.233 1.233 0 0 0-.43.415l-.154.25-.015 8.411c-.01 5.628.002 8.471.037 8.592.097.335.469.686.866.816.204.067.676.014.9-.1zm20.9.092a8.65 8.65 0 0 0 3.117-.885c1.43-.697 2.816-1.925 3.754-3.325 1.157-1.73 1.674-3.906 1.45-6.108-.22-2.16-1.103-3.992-2.693-5.582-1.506-1.506-3.202-2.37-5.239-2.67-.803-.117-2.489-.079-3.215.073-1.851.389-3.224 1.113-4.588 2.42-1.407 1.35-2.23 2.732-2.65 4.448-.218.894-.272 1.486-.24 2.66.021.829.05 1.136.156 1.634.438 2.064 1.52 3.832 3.207 5.245 1.934 1.62 4.36 2.35 6.941 2.09zm-2.217-2.568c-1.456-.256-2.72-.952-3.772-2.078-.92-.982-1.516-2.154-1.747-3.43-.103-.572-.09-2.05.025-2.59.303-1.437.91-2.51 2.026-3.586 1.401-1.35 3.015-1.962 4.967-1.885 1.076.042 1.966.27 2.86.732 1.277.66 2.525 1.956 3.102 3.223.42.92.59 1.757.59 2.894.001 1.202-.19 2.043-.688 3.04-.964 1.924-2.831 3.323-4.918 3.683-.565.097-1.883.096-2.445-.003zm14.008 2.56c.265-.08.664-.443.782-.713.089-.204.096-.435.11-3.785l.014-3.57h8.276l.001 3.595c.001 4.045-.02 3.814.39 4.184.674.608 1.7.369 2.017-.47.077-.203.083-.923.07-8.629-.013-7.841-.02-8.418-.101-8.567a1.268 1.268 0 0 0-1.145-.677c-.536-.002-.912.241-1.137.735-.087.19-.093.428-.094 3.772v3.569H98.64v-3.397c0-2.065-.02-3.504-.051-3.67a1.312 1.312 0 0 0-.55-.83c-.276-.194-.797-.242-1.153-.107-.288.11-.65.507-.73.8-.045.165-.056 2.274-.045 8.575l.014 8.357.141.24c.31.527.895.761 1.471.588zm25.921-.074c.451-.244.686-.629.685-1.12 0-.518-.288-.963-.761-1.179-.16-.072-.762-.08-5.868-.08-5.676 0-5.69 0-5.918.106-.473.221-.732.622-.735 1.14-.002.398.153.744.437.974.377.305.064.291 6.267.28l5.69-.012zm5.025-.038c.261-.153.468-.4.567-.678.091-.256.106-16.598.015-16.96-.076-.3-.432-.696-.729-.81-.355-.135-.877-.087-1.153.107a1.305 1.305 0 0 0-.551.84c-.034.188-.047 3.066-.038 8.509l.013 8.225.113.21c.135.253.508.591.737.669.278.094.765.041 1.026-.112zm4.78.032c.262-.135.45-.337.58-.621.101-.226.103-.308.107-5.791l.004-5.563 2.88 5.745c1.584 3.16 2.933 5.816 2.998 5.905.064.088.224.224.355.3.203.12.295.14.62.14.32 0 .416-.02.609-.134.126-.074.279-.203.34-.286.06-.083 1.41-2.743 2.997-5.91l2.886-5.76.025 5.639c.029 6.345-.011 5.771.43 6.16.625.55 1.585.343 1.94-.418l.119-.256v-8.337c0-9.082.017-8.551-.278-8.939-.194-.254-.592-.428-.978-.428-.374 0-.629.109-.887.377-.114.119-1.302 2.434-3.694 7.197l-3.526 7.023-3.51-7.01c-1.93-3.854-3.564-7.079-3.63-7.165-.204-.268-.55-.422-.95-.422-.567 0-1.036.32-1.182.806-.044.146-.059 2.36-.058 8.573.001 8.014.005 8.385.095 8.581.109.24.49.593.728.674.243.082.745.041.981-.08zm-10.72-8.084c.635-.294.895-1.107.554-1.732a1.456 1.456 0 0 0-.302-.386c-.37-.283-.199-.274-5.3-.274h-4.705l-.254.12c-.547.254-.852.825-.736 1.38.076.366.307.666.654.847l.271.142 4.808-.001c4.575-.001 4.817-.006 5.01-.096zm.864-8.102c.486-.23.737-.617.736-1.134 0-.518-.277-.946-.755-1.172-.17-.08-.607-.087-5.874-.087-5.676 0-5.69 0-5.918.107-.562.263-.853.85-.712 1.438.068.282.283.614.483.745.342.225.218.22 6.147.222l5.64.002.253-.12zM50.053 4.667c.297-.13.569-.387.722-.684.19-.368.191-.911.001-1.275-.56-1.076-2.068-1.083-2.601-.013-.165.331-.182.912-.036 1.233a1.453 1.453 0 0 0 1.914.74zm5.34-.003c.257-.112.57-.417.705-.687.075-.153.1-.306.1-.634 0-.5-.084-.719-.398-1.032-.287-.287-.595-.41-1.025-.409-.451.001-.754.14-1.067.487a1.4 1.4 0 0 0-.02 1.889c.441.5 1.098.65 1.704.386z" style="fill:#fff;fill-opacity:1;stroke-width:.0508"/></svg>