<svg width="124" height="23" viewBox="0 0 124 23" fill="none" xmlns="http://www.w3.org/2000/svg">
<g clip-path="url(#clip0_233_40)">
<path d="M33.1566 22.2589V21.3263H32.6997V21.8821C32.6997 22.3113 32.6892 22.4342 32.6525 22.4199C32.6263 22.4095 32.1649 22.1443 31.627 21.8297C31.0892 21.515 30.6397 21.2678 30.6285 21.2798C30.6165 21.2918 30.6067 21.7091 30.6067 22.2087V23.1151H31.0637V22.563C31.0637 22.2596 31.0697 22.0117 31.0772 22.0117C31.0847 22.0117 31.5431 22.2761 32.0959 22.599C32.6473 22.9226 33.1125 23.1878 33.1282 23.1893C33.1432 23.1908 33.1566 22.772 33.1566 22.2589ZM84.339 22.2566V21.3225L84.1203 21.3338L83.9015 21.345L83.8821 21.8873L83.8633 22.4289L82.9494 21.8933C82.612 21.6938 82.2729 21.497 81.9322 21.3031L81.8273 21.2484V23.1144H82.282L82.2925 22.5623L82.303 22.0094L83.3113 22.599C83.8656 22.9233 84.324 23.1893 84.3293 23.19C84.3345 23.19 84.339 22.7705 84.339 22.2566ZM94.7274 22.2589V21.3263H94.2727L94.2622 21.8791L94.2517 22.4319L93.3004 21.8761C92.7775 21.5705 92.3191 21.3038 92.2824 21.2843C92.2202 21.2499 92.2157 21.3038 92.2157 22.1817V23.1151H92.6704L92.6809 22.5653L92.6914 22.0154L93.6996 22.6027C94.254 22.9256 94.7124 23.19 94.7184 23.1908C94.7229 23.1908 94.7274 22.7713 94.7274 22.2589ZM111.243 22.2589V21.3263H110.786V21.8784C110.786 22.1817 110.779 22.4304 110.768 22.4304C110.753 22.4304 109.199 21.5278 108.855 21.3195L108.732 21.2446V23.1151H109.186L109.197 22.5668L109.207 22.0192L110.196 22.6012C110.741 22.9218 111.198 23.1855 111.215 23.1878C111.23 23.19 111.243 22.772 111.243 22.2589ZM39.2505 23.0979C39.4767 23.0507 39.8161 22.9121 39.8161 22.8686C39.8161 22.8597 39.7689 22.7735 39.7112 22.6784C39.637 22.5563 39.5898 22.5128 39.5494 22.5308C39.2175 22.6776 39.055 22.7098 38.6362 22.7106C38.2707 22.7113 38.1696 22.6986 38.0205 22.6312C37.6415 22.4596 37.6227 22.0132 37.9875 21.8312C38.0977 21.7765 38.222 21.7637 38.655 21.7645C39.1262 21.7645 39.2093 21.775 39.3741 21.8499C39.476 21.8971 39.5726 21.9353 39.5891 21.9353C39.6048 21.9353 39.6655 21.8559 39.7224 21.7577C39.8228 21.5862 39.8243 21.5787 39.7546 21.5278C39.7149 21.4993 39.5629 21.4379 39.4161 21.3929C39.031 21.2731 38.2227 21.2731 37.8999 21.3929C37.4572 21.5577 37.2587 21.8177 37.2587 22.2349C37.2587 22.8312 37.7261 23.1458 38.6175 23.1503C38.8265 23.1503 39.1119 23.1278 39.2505 23.0979ZM60.3943 23.0956C60.6865 23.0267 60.9194 22.9128 60.9741 22.811C60.9966 22.7683 61.0101 22.5937 61.0041 22.4207L60.9929 22.1068L60.3554 22.0963L59.7187 22.0859V22.4686H60.1366C60.5539 22.4686 60.5554 22.4686 60.5554 22.5608C60.5554 22.6402 60.5292 22.6582 60.3629 22.6934C60.258 22.7158 59.9883 22.7346 59.7636 22.7346C59.4138 22.7346 59.3291 22.7211 59.1591 22.6424C58.7426 22.4477 58.7306 22.0147 59.1366 21.8169C59.4452 21.6671 60.1636 21.6783 60.7262 21.8409C60.7891 21.8589 60.8153 21.8312 60.8745 21.6858C60.9606 21.4746 60.9561 21.4693 60.5801 21.384C59.7187 21.1869 58.9164 21.315 58.5628 21.7061C58.1171 22.1997 58.428 22.8911 59.1846 23.0926C59.4587 23.1653 60.0924 23.1675 60.3943 23.0956ZM80.4265 23.0432C80.6475 22.9578 80.8483 22.7735 80.9164 22.5952C80.9359 22.5435 80.9524 22.2372 80.9524 21.9136V21.327H80.4954V22.4379L80.3696 22.5638C80.2168 22.7166 80.037 22.751 79.5336 22.7263C78.9074 22.6956 78.8594 22.6334 78.8594 21.8619V21.327H78.4025V21.8888C78.4025 22.5173 78.4302 22.6604 78.5822 22.8207C78.8212 23.0717 79.1291 23.1556 79.7531 23.1391C80.1119 23.1293 80.2565 23.1091 80.4265 23.0432ZM87.4095 23.0612C87.5189 23.0275 87.6597 22.9555 87.7242 22.9016C87.838 22.8057 87.8395 22.799 87.8395 22.4447V22.0859L87.2028 22.0963L86.5653 22.1068V22.4492L86.9743 22.4604C87.3758 22.4709 87.3833 22.4731 87.3833 22.5608C87.3833 22.6102 87.3534 22.6634 87.3159 22.6791C87.1983 22.7308 86.3091 22.7465 86.1383 22.7001C85.9323 22.6439 85.7638 22.5008 85.7083 22.3338C85.6454 22.1443 85.7481 21.9473 85.975 21.8222C86.2657 21.6619 86.9758 21.6709 87.5579 21.8416C87.6253 21.8619 87.65 21.8357 87.7167 21.6821C87.8095 21.4679 87.8118 21.4701 87.4545 21.3847C87.1144 21.3031 86.4604 21.2708 86.1848 21.3218C85.8447 21.3847 85.4881 21.5787 85.3488 21.7772C85.2454 21.9248 85.2334 21.972 85.2334 22.2207C85.2334 22.4716 85.2447 22.5151 85.351 22.6627C85.4859 22.8484 85.7803 23.0297 86.0657 23.1024C86.3278 23.169 87.1444 23.1443 87.4095 23.0612ZM104.191 23.0612C104.301 23.0275 104.442 22.9555 104.506 22.9016C104.62 22.8057 104.621 22.7982 104.621 22.4462V22.0881H103.366V22.4686H103.765C104.161 22.4686 104.165 22.4686 104.165 22.5593C104.165 22.6102 104.135 22.6641 104.098 22.6791C104.062 22.6949 103.815 22.7166 103.551 22.7256C102.988 22.7465 102.746 22.6904 102.587 22.5008C102.474 22.366 102.456 22.1166 102.55 21.9817C102.761 21.6798 103.571 21.6177 104.345 21.8431C104.419 21.8656 104.441 21.8439 104.508 21.6858C104.601 21.4708 104.599 21.4686 104.228 21.384C103.176 21.1442 102.21 21.4012 102.041 21.9682C101.886 22.4829 102.193 22.9143 102.842 23.0971C103.104 23.1705 103.91 23.1496 104.191 23.0612ZM34.4436 23.0012L34.529 22.8874H35.2406L35.9538 22.8866L36.0489 23.0027C36.1418 23.1151 36.153 23.1188 36.4234 23.1076L36.7036 23.0964L35.986 22.1945C35.5912 21.6986 35.2571 21.2963 35.2436 21.3001C35.2137 21.309 33.8031 23.0679 33.8031 23.0956C33.8031 23.1069 33.929 23.1151 34.0818 23.1151C34.347 23.1151 34.3634 23.1099 34.4436 23.0012ZM34.8691 22.4844C34.8691 22.4469 35.2196 22.0312 35.2519 22.0312C35.2803 22.0312 35.6301 22.4581 35.6301 22.4919C35.6301 22.5001 35.4586 22.5068 35.2496 22.5068C35.0399 22.5068 34.8691 22.4971 34.8691 22.4844ZM41.0715 22.7728V22.4304H42.784V23.1151H43.2409V21.327H42.784V22.0117H41.0715V21.3225L40.8528 21.3345L40.6341 21.3457L40.6236 22.2304L40.6138 23.1151H41.0715V22.7728ZM44.5728 22.7728V22.4304H46.2852V23.1151H46.7414V21.327H46.2852V22.0117H44.5728V21.327H44.1158V23.1151H44.5728V22.7728ZM48.0733 23.0012L48.1549 22.8874H49.5887L49.6853 23.0012C49.7752 23.1084 49.7977 23.1151 50.0501 23.1151C50.1977 23.1151 50.3191 23.1046 50.3191 23.0926C50.3191 23.0582 48.901 21.2888 48.8748 21.2903C48.8561 21.2918 47.5984 22.8642 47.4725 23.0439C47.4246 23.1114 47.4366 23.1151 47.707 23.1151C47.9804 23.1151 47.9946 23.1106 48.0733 23.0012ZM48.519 22.4559C48.5774 22.3585 48.8538 22.0154 48.8756 22.0139C48.8876 22.0124 48.9864 22.1233 49.095 22.2589L49.2936 22.5061H48.8913C48.5654 22.5061 48.4943 22.4971 48.519 22.4559ZM53.4697 22.9158L53.4585 22.7158L52.5161 22.7053L51.5745 22.6956V21.327H51.1176V23.1151H53.481L53.4697 22.9158ZM55.1897 22.4304V21.7458H56.1785V21.3263H53.7814V21.7458H54.7327V23.1151H55.1897V22.4304ZM57.4729 22.2207V21.327H57.0159V23.1151H57.4729V22.2207ZM64.2462 22.9061V22.6964H62.306V22.3922H64.1705V22.0117H62.306V21.7458H64.2462V21.3263L63.0573 21.336L61.8678 21.3457L61.8581 22.2304L61.8476 23.1151H64.2462V22.9061ZM67.2148 22.7728V22.4304H68.9272V23.1151H69.3849L69.3752 22.2312L69.3647 21.3457L69.146 21.3345L68.9272 21.3233V22.0124H67.2148V21.327H66.7579V23.1158H67.2148V22.7728ZM72.6562 22.9061V22.6964H70.7153V22.3922H72.5805V22.0117H70.7153V21.7458H72.6562V21.3263H70.2591V23.1151H72.6562V22.9061ZM73.9499 22.2214V21.327H73.4937V23.1151H73.9499V22.2214ZM77.5575 22.9158L77.5463 22.7158L76.7867 22.6971L76.0279 22.6776L76.7964 22.0184C77.2189 21.6559 77.565 21.3517 77.565 21.3428C77.565 21.3345 76.9829 21.327 76.2713 21.327H74.9776V21.7061L75.7192 21.7165L76.4608 21.7263L75.6623 22.4087C75.2226 22.7848 74.8638 23.0971 74.8638 23.1039C74.8638 23.1106 75.472 23.1158 76.2166 23.1158H77.5695L77.5575 22.9158ZM89.1849 23.0012L89.2808 22.8874H90.695L90.7992 23.0035C90.8988 23.1151 90.9138 23.1188 91.1752 23.1084L91.4479 23.0964L90.764 22.2402C90.5225 21.9349 90.2778 21.6323 90.0299 21.3323C89.9879 21.2896 89.8793 21.4072 89.3789 22.0364C89.0493 22.4522 88.7197 22.8649 88.647 22.954L88.5159 23.1151H88.8021C89.074 23.1151 89.0942 23.1091 89.1849 23.0012ZM89.6321 22.4394C89.8336 22.178 89.9819 22.0147 90.0051 22.0282C90.0201 22.0379 90.1137 22.1488 90.2134 22.2754L90.3947 22.5068H89.9879C89.6059 22.5068 89.5841 22.5023 89.6321 22.4394ZM97.9919 22.9158L97.9814 22.7158L97.0391 22.7053L96.0975 22.6956V21.327H95.6405V23.1151H98.0039L97.9919 22.9158ZM99.3186 23.0012L99.4152 22.8874H100.829L100.927 23.0035C101.022 23.1158 101.034 23.1196 101.301 23.1084L101.578 23.0964L100.851 22.1885C100.251 21.4394 100.115 21.2896 100.075 21.3323C99.9606 21.4559 98.6849 23.0702 98.6849 23.0911C98.6849 23.1046 98.8062 23.1151 98.9545 23.1151C99.2062 23.1151 99.2287 23.1076 99.3186 23.0012ZM99.9104 22.2536L100.109 22.0012L100.238 22.1488C100.308 22.2312 100.4 22.3443 100.441 22.402L100.516 22.5068H99.7119L99.9104 22.2536ZM107.887 22.9158L107.875 22.7158L106.914 22.7053L105.953 22.6956V22.3922H107.822L107.81 22.2117L107.799 22.0312L106.876 22.0207L105.953 22.0102V21.7458H107.898L107.887 21.5458L107.875 21.3457L106.686 21.336L105.496 21.3255V23.1158H107.898L107.887 22.9158ZM25.3376 22.7151C26.1616 22.5053 26.8575 21.8199 27.0935 20.9847C27.1602 20.7472 27.1632 20.3592 27.1632 11.9844V3.23199L27.0568 2.91962C26.852 2.30484 26.4133 1.79542 25.8358 1.50159C25.2627 1.21394 26.2598 1.23566 13.711 1.23566C1.14876 1.23566 2.16902 1.21319 1.572 1.50534C1.31506 1.63118 1.18622 1.72707 0.944259 1.97202C0.640128 2.2799 0.521023 2.47166 0.340492 2.94284L0.258841 3.15558L0.249103 11.8795C0.237867 21.4439 0.225132 20.8791 0.461845 21.3802C0.700097 21.8843 1.10157 22.2931 1.60121 22.5405C2.08213 22.7825 1.20045 22.7653 13.6938 22.7698C23.775 22.7728 25.1376 22.766 25.3376 22.7151ZM2.24992 21.4948C2.00797 21.4199 1.68436 21.1195 1.5675 20.8611L1.47686 20.6603V3.34585L1.58398 3.12862C1.70084 2.88891 1.90384 2.69414 2.17576 2.55931L2.3518 2.47091H25.032L25.2418 2.57054C25.48 2.68291 25.7062 2.89565 25.826 3.11738L25.907 3.27019L25.9174 11.9611L25.9272 20.6521L25.8373 20.8484C25.7323 21.0944 25.5465 21.2974 25.3107 21.4237L25.1084 21.536L13.7679 21.5428C3.97808 21.5488 2.40424 21.5428 2.24992 21.4948ZM11.4877 18.7621C12.8046 18.4842 13.9252 17.8932 14.8856 16.9696C16.8145 15.1148 17.4872 12.3686 16.637 9.81575C15.5688 6.6044 12.2892 4.65002 8.9408 5.22981C6.14295 5.71373 3.94212 7.85912 3.35783 10.6712C3.25296 11.1761 3.214 12.3177 3.28292 12.866C3.65522 15.8212 5.91672 18.2318 8.82469 18.7734C9.41947 18.8842 9.42996 18.8857 10.2674 18.8708C10.9042 18.861 11.1034 18.843 11.4877 18.7621ZM9.29212 17.6175C6.81563 17.213 4.95264 15.3792 4.53315 12.9357C4.46723 12.5499 4.45824 12.3784 4.47622 11.8323C4.49869 11.1267 4.54963 10.83 4.74964 10.2285C5.92272 6.69504 10.1536 5.23805 13.2518 7.29955C13.9208 7.74936 14.4874 8.33516 14.9146 9.01875C15.3418 9.70233 15.6201 10.4683 15.7313 11.2667C15.7882 11.7012 15.7545 12.7642 15.6714 13.1447C15.177 15.3995 13.4893 17.0812 11.242 17.5621C10.7588 17.6655 9.75881 17.6939 9.29212 17.6175ZM7.49356 15.3755C8.25014 15.174 9.08463 14.3687 9.62622 13.3162L9.7633 13.0496L10.1169 13.0518L10.4704 13.0541L10.6255 13.3485C10.8952 13.8601 11.1604 14.2174 11.5761 14.6294C12.1776 15.2249 12.6795 15.4609 13.2571 15.4197C13.6204 15.3935 13.8728 15.2616 14.1732 14.9403C14.5657 14.5223 14.8062 13.929 14.7657 13.481C14.7103 12.869 14.2039 12.3304 13.4129 12.042C12.9185 11.8615 12.5439 11.8031 11.8128 11.7933L11.1506 11.7844L11.1019 11.642C11.0596 11.5371 11.0026 11.4388 10.9326 11.3499C10.824 11.215 10.8173 11.1926 10.8675 11.1356C11.1012 10.866 11.5154 10.0158 11.6518 9.52435C11.9139 8.5775 11.7948 7.83141 11.3094 7.38195C10.9716 7.06958 10.7663 7.00291 10.1334 7.00141C9.46217 6.99917 9.23744 7.07408 8.89361 7.41641C8.54154 7.76698 8.47861 7.95576 8.48086 8.65466C8.48236 9.14456 8.49434 9.24494 8.58723 9.54907C8.71308 9.96107 8.99623 10.5656 9.23594 10.9371L9.41198 11.2083L9.29812 11.3491C9.23594 11.4263 9.16178 11.5589 9.13257 11.642L9.08013 11.7941L8.62693 11.7814C6.64858 11.7259 5.26801 12.6361 5.48824 13.8511C5.57364 14.3268 5.99762 14.9867 6.36842 15.2204C6.68978 15.4227 7.10178 15.4804 7.49356 15.3755ZM6.92425 14.0886C6.85469 13.9909 6.79474 13.8868 6.74522 13.7777C6.67181 13.6106 6.67031 13.5904 6.72499 13.5058C6.80514 13.3837 7.05459 13.2436 7.35722 13.1522C7.62914 13.0698 8.33404 12.9687 8.37224 13.0069C8.38572 13.0204 8.32879 13.1282 8.24714 13.2481C7.91305 13.7342 7.43363 14.1522 7.15946 14.1972C7.03811 14.2167 7.01264 14.2047 6.92425 14.0886ZM12.8735 14.126C12.7799 14.0788 12.5814 13.9208 12.4331 13.7739C12.1671 13.5103 11.8203 13.0443 11.86 13.0046C11.8975 12.9672 12.5941 13.0668 12.86 13.1485C13.1709 13.2428 13.4234 13.3822 13.502 13.5013C13.5522 13.5784 13.5522 13.6076 13.5005 13.759C13.4256 13.9807 13.2353 14.2107 13.1282 14.2107C13.0825 14.2107 12.9679 14.1725 12.8735 14.126ZM9.98953 9.78653C9.79252 9.38427 9.70712 9.07864 9.68839 8.71159C9.66367 8.23966 9.6824 8.21719 10.1154 8.21719C10.397 8.21719 10.4525 8.22768 10.4982 8.2906C10.5776 8.39922 10.5671 8.85242 10.4779 9.17453C10.4075 9.42697 10.1581 10.0247 10.1221 10.0247C10.1139 10.0247 10.0532 9.91762 9.98953 9.78653ZM23.8709 18.5059C24.2934 18.2692 24.2619 17.643 23.8185 17.4415C23.6717 17.3748 23.5218 17.3703 21.318 17.3696H18.9741L18.8093 17.4565C18.7023 17.5118 18.6139 17.5974 18.5553 17.7027C18.4967 17.8079 18.4704 17.9281 18.4797 18.0483C18.4999 18.2378 18.5898 18.3779 18.7719 18.5015L18.8977 18.5868H21.3128C23.7024 18.5868 23.7293 18.5861 23.8709 18.5059ZM23.8327 15.5328C24.0567 15.4182 24.1473 15.2856 24.1661 15.0399C24.1848 14.8069 24.0949 14.6354 23.8739 14.4871L23.7466 14.4009H18.897L18.7711 14.4863C18.5891 14.6107 18.4992 14.75 18.479 14.9388C18.4677 15.0595 18.4931 15.1808 18.5519 15.2868C18.6107 15.3928 18.7002 15.4785 18.8086 15.5328L18.9779 15.6182H23.6642L23.8327 15.5328ZM23.8747 12.526C24.0919 12.3791 24.1848 12.2053 24.1668 11.9806C24.1473 11.7387 24.0275 11.5626 23.8177 11.4667C23.6717 11.4008 23.5218 11.3963 21.3203 11.3956L18.9786 11.3948L18.8086 11.4802C18.7004 11.5347 18.6113 11.6206 18.5528 11.7266C18.4942 11.8325 18.469 11.9537 18.4805 12.0743C18.4999 12.2638 18.5898 12.4031 18.7719 12.5267L18.8977 12.6121H23.7458L23.8747 12.526ZM23.8177 9.60975C23.9162 9.56641 24.0008 9.49692 24.0625 9.40883C24.1242 9.32073 24.1605 9.21741 24.1676 9.1101C24.1786 8.99729 24.1564 8.88372 24.1037 8.78337C24.0509 8.68301 23.9701 8.60026 23.8709 8.54529C23.7293 8.46514 23.7024 8.46439 21.3128 8.46439H18.8977L18.7719 8.54978C18.5898 8.67413 18.4999 8.81346 18.4797 9.00223C18.4704 9.12235 18.4967 9.24255 18.5553 9.34781C18.6139 9.45307 18.7023 9.5387 18.8093 9.59402L18.9741 9.68241L21.3188 9.68166C23.5211 9.68091 23.6709 9.67642 23.8177 9.60975ZM23.8717 6.55196C24.0537 6.42836 24.1436 6.28978 24.1653 6.09876C24.179 5.99399 24.164 5.88745 24.1217 5.79059C24.0795 5.69372 24.0117 5.61018 23.9256 5.54893L23.7825 5.43881L21.363 5.42982L18.9434 5.42008L18.7913 5.50623C18.3808 5.73695 18.3786 6.316 18.7868 6.56544C18.8992 6.63436 19.0161 6.63736 21.3263 6.63736H23.7458L23.8717 6.55196ZM38.3756 17.9756C40.0775 17.8033 41.5083 17.0864 42.7353 15.7912C43.9293 14.5313 44.5406 13.0953 44.6327 11.3342C44.7376 9.33783 44.0282 7.50855 42.5944 6.07704C41.4109 4.89647 40.1179 4.24926 38.5411 4.04925C38.1411 3.99906 37.1268 3.99906 36.7058 4.05C35.1515 4.23802 33.8009 4.92494 32.6113 6.13022C31.2779 7.48233 30.636 9.07115 30.6367 11.0143C30.6375 12.1761 30.8322 13.0743 31.2929 14.0391C31.839 15.1837 32.8585 16.3066 33.9949 17.0145C35.2316 17.7861 36.819 18.1336 38.3756 17.9756ZM36.6991 16.0542C35.7357 15.8811 34.8449 15.4271 34.1387 14.7493C33.0413 13.705 32.5094 12.4878 32.5094 11.0195C32.5094 9.70338 32.9192 8.60147 33.7634 7.64638C34.5462 6.76171 35.5013 6.19614 36.6002 5.96842C37.0774 5.86954 38.1756 5.86804 38.6362 5.96542C39.6685 6.18416 40.4932 6.63211 41.2423 7.38045C42.0558 8.19322 42.5218 9.08688 42.6903 10.1596C42.7682 10.657 42.748 11.6667 42.6521 12.0982C42.4049 13.2001 41.8978 14.0511 40.9959 14.8714C40.3906 15.4212 39.5996 15.8287 38.7628 16.0205C38.3853 16.1074 37.1193 16.1276 36.6991 16.0542ZM47.3399 17.9074C47.5347 17.8078 47.7437 17.5666 47.8014 17.3741C47.8321 17.2692 47.8456 16.5763 47.8456 14.986V12.7447L48.4531 12.1379C48.8254 11.7656 49.0748 11.5446 49.095 11.5671C49.113 11.5873 50.1423 12.9829 51.3828 14.6669C52.6233 16.3523 53.6825 17.7688 53.7379 17.816C53.887 17.9419 54.2151 18.0295 54.4391 18.0033C54.941 17.9434 55.3073 17.4759 55.2541 16.9636C55.2424 16.8488 55.2107 16.737 55.1604 16.6332C55.1207 16.5658 54.0518 15.1066 52.7866 13.3912C51.5206 11.6757 50.4719 10.2487 50.4547 10.2203C50.4322 10.1828 51.0831 9.50712 52.7828 7.80369C55.4024 5.17888 55.2968 5.30472 55.2548 4.84553C55.2456 4.70352 55.2022 4.56584 55.1284 4.44417C55.0546 4.3225 54.9525 4.22044 54.8308 4.14663C54.5761 3.98932 54.1806 3.9631 53.9304 4.0882C53.8121 4.14663 52.8854 5.04779 50.8045 7.12576L47.8471 10.0794L47.8366 7.35648L47.8261 4.63429L47.7107 4.44702C47.6305 4.31857 47.5198 4.21181 47.3886 4.13614C47.2081 4.02752 47.1489 4.01179 46.9129 4.01179C46.6762 4.01179 46.6178 4.02678 46.4373 4.13614C46.306 4.21179 46.1954 4.31855 46.1152 4.44702L45.9998 4.63429L45.9886 10.9349C45.9811 15.1508 45.9901 17.2804 46.0163 17.3711C46.0889 17.622 46.3676 17.885 46.665 17.9823C46.8178 18.0325 47.1721 17.9928 47.3399 17.9074ZM62.9959 17.9763C63.809 17.9044 64.6012 17.6795 65.3308 17.3134C66.402 16.7913 67.4403 15.8714 68.1429 14.8227C69.0096 13.5267 69.3969 11.8967 69.2291 10.2472C69.0643 8.62919 68.4029 7.25685 67.2118 6.0658C66.0837 4.93767 64.8132 4.29046 63.2873 4.06573C62.6858 3.97808 61.4228 4.00655 60.879 4.12041C59.4924 4.41181 58.4639 4.95415 57.4422 5.93321C56.3882 6.94448 55.7717 7.97973 55.4571 9.26517C55.2938 9.93485 55.2533 10.3783 55.2773 11.2577C55.293 11.8787 55.3148 12.1087 55.3942 12.4818C55.7223 14.0279 56.5328 15.3523 57.7965 16.4107C59.2452 17.6243 61.0625 18.1711 62.9959 17.9763ZM61.3352 16.0527C60.2445 15.8609 59.2977 15.3395 58.5096 14.4961C57.8205 13.7605 57.374 12.8825 57.201 11.9267C57.1238 11.4982 57.1335 10.391 57.2197 9.98654C57.4467 8.9101 57.9014 8.10632 58.7373 7.3003C59.7868 6.28903 60.9959 5.83059 62.4581 5.88827C63.2641 5.91973 63.9308 6.09052 64.6005 6.4366C65.5571 6.931 66.4919 7.90182 66.9242 8.85092C67.2388 9.54008 67.3661 10.1671 67.3661 11.0188C67.3669 11.9192 67.2238 12.5492 66.8507 13.296C66.1286 14.7373 64.7301 15.7853 63.1667 16.0549C62.7435 16.1276 61.7562 16.1268 61.3352 16.0527ZM71.8284 17.9703C72.027 17.9104 72.3258 17.6385 72.4142 17.4362C72.4809 17.2834 72.4861 17.1104 72.4966 14.6009L72.5071 11.9267H78.7066L78.7073 14.6197C78.7081 17.6497 78.6924 17.4767 78.9995 17.7539C79.5044 18.2093 80.273 18.0303 80.5104 17.4018C80.5681 17.2497 80.5726 16.7104 80.5628 10.9379C80.5531 5.06427 80.5479 4.63204 80.4872 4.52043C80.4052 4.36475 80.2816 4.23491 80.1302 4.14536C79.9787 4.05582 79.8054 4.01009 79.6295 4.01329C79.228 4.01179 78.9463 4.19382 78.7778 4.56387C78.7126 4.7062 78.7081 4.88448 78.7073 7.38944V10.0629H72.5034V7.51829C72.5034 5.97141 72.4884 4.89347 72.4652 4.76912C72.4149 4.51579 72.2669 4.29244 72.0532 4.14738C71.8464 4.00206 71.4562 3.9661 71.1895 4.06723C70.9737 4.14963 70.7026 4.44702 70.6426 4.6665C70.6089 4.7901 70.6007 6.36993 70.6089 11.09L70.6194 17.3501L70.725 17.5299C70.9573 17.9247 71.3955 18.0999 71.827 17.9703H71.8284ZM91.2456 17.9149C91.5835 17.7321 91.7595 17.4437 91.7588 17.0759C91.7588 16.6879 91.543 16.3546 91.1887 16.1928C91.0688 16.1388 90.6179 16.1328 86.793 16.1328C82.5412 16.1328 82.5307 16.1328 82.3599 16.2122C82.0056 16.3778 81.8116 16.6782 81.8093 17.0662C81.8078 17.3643 81.9239 17.6235 82.1367 17.7958C82.4191 18.0243 82.1846 18.0138 86.8312 18.0056L91.0936 17.9966L91.2456 17.9149ZM95.0098 17.8864C95.2053 17.7718 95.3604 17.5868 95.4345 17.3786C95.5027 17.1868 95.5139 4.94516 95.4458 4.67399C95.3888 4.44926 95.1222 4.15262 94.8997 4.06723C94.6338 3.9661 94.2427 4.00206 94.036 4.14738C93.929 4.21979 93.8375 4.31269 93.7666 4.42069C93.6958 4.52869 93.6471 4.64966 93.6232 4.77662C93.5978 4.91744 93.588 7.07333 93.5948 11.1506L93.6045 17.3119L93.6892 17.4692C93.7903 17.6587 94.0697 17.9119 94.2412 17.9703C94.4495 18.0408 94.8143 18.0011 95.0098 17.8864ZM98.5905 17.9104C98.7867 17.8093 98.9276 17.658 99.0249 17.4452C99.1006 17.2759 99.1021 17.2145 99.1051 13.1073L99.1081 8.94006L101.265 13.2436C102.452 15.6107 103.463 17.6003 103.511 17.667C103.559 17.7329 103.679 17.8348 103.777 17.8917C103.929 17.9816 103.998 17.9966 104.242 17.9966C104.481 17.9966 104.553 17.9816 104.698 17.8962C104.792 17.8408 104.907 17.7441 104.952 17.6819C104.997 17.6198 106.009 15.6272 107.198 13.2548L109.359 8.94006L109.378 13.1642C109.4 17.9172 109.37 17.4872 109.7 17.7786C110.168 18.1906 110.888 18.0355 111.153 17.4655L111.243 17.2737V11.0285C111.243 4.22528 111.255 4.62305 111.034 4.3324C110.889 4.14214 110.591 4.01179 110.302 4.01179C110.022 4.01179 109.831 4.09344 109.637 4.2942C109.552 4.38334 108.662 6.11749 106.87 9.68541L104.229 14.9463L101.6 9.69514C100.154 6.80815 98.9298 4.39233 98.8804 4.32791C98.7276 4.12715 98.4684 4.01179 98.1687 4.01179C97.744 4.01179 97.3927 4.2515 97.2833 4.61556C97.2503 4.72493 97.2391 6.38341 97.2399 11.0375C97.2406 17.0407 97.2436 17.3186 97.311 17.4655C97.3927 17.6452 97.6781 17.9097 97.8564 17.9703C98.0384 18.0318 98.4144 18.0011 98.5912 17.9104H98.5905ZM90.5602 11.8548C91.0359 11.6345 91.2306 11.0255 90.9752 10.5573C90.9167 10.4489 90.8402 10.3511 90.749 10.2682C90.4718 10.0562 90.5999 10.0629 86.7788 10.0629H83.2543L83.0641 10.1528C82.6543 10.3431 82.4258 10.7708 82.5127 11.1866C82.5697 11.4608 82.7427 11.6855 83.0026 11.8211L83.2056 11.9274L86.8073 11.9267C90.2344 11.9259 90.4156 11.9222 90.5602 11.8548ZM91.2074 5.78564C91.5715 5.61335 91.7595 5.32345 91.7588 4.93617C91.7588 4.54814 91.5513 4.22753 91.1932 4.05824C91.0658 3.99831 90.7385 3.99307 86.793 3.99307C82.5412 3.99307 82.5307 3.99307 82.3599 4.07322C81.9389 4.27023 81.7209 4.70995 81.8266 5.15041C81.8775 5.36165 82.0386 5.61035 82.1884 5.70848C82.4446 5.87703 82.3517 5.87328 86.793 5.87478L91.0179 5.87628L91.2074 5.78564ZM36.1073 2.91063C36.3298 2.81325 36.5336 2.62073 36.6482 2.39825C36.7905 2.12259 36.7912 1.71583 36.6489 1.44316C36.2294 0.637141 35.0998 0.631897 34.7005 1.43342C34.5769 1.68137 34.5642 2.11659 34.6736 2.35705C34.7905 2.62042 35.0071 2.82668 35.2759 2.93059C35.5446 3.0345 35.8436 3.02759 36.1073 2.91138V2.91063ZM40.1075 2.90838C40.3 2.82448 40.5344 2.59601 40.6356 2.39376C40.6918 2.27915 40.7105 2.16454 40.7105 1.91883C40.7105 1.54429 40.6476 1.38024 40.4123 1.14577C40.1974 0.930784 39.9666 0.838646 39.6445 0.839395C39.3067 0.840144 39.0797 0.944268 38.8452 1.2042C38.6665 1.39561 38.5659 1.64695 38.5631 1.90881C38.5603 2.17067 38.6556 2.42409 38.8303 2.61923C39.1606 2.99378 39.6528 3.10614 40.1067 2.90838H40.1075Z" fill="white"/>
</g>
<g clip-path="url(#clip1_233_40)">
<path d="M34.9865 24.5528V23.4954H34.4684V24.1256C34.4684 24.6123 34.4565 24.7516 34.4149 24.7354C34.3851 24.7235 33.8619 24.4229 33.2521 24.0661C32.6423 23.7094 32.1327 23.4291 32.12 23.4427C32.1064 23.4563 32.0953 23.9294 32.0953 24.4959V25.5236H32.6134V24.8976C32.6134 24.5537 32.6202 24.2725 32.6287 24.2725C32.6372 24.2725 33.157 24.5723 33.7838 24.9384C34.4089 25.3053 34.9363 25.606 34.9542 25.6077C34.9712 25.6094 34.9865 25.1346 34.9865 24.5528ZM93.0175 24.5503V23.4911L92.7695 23.5039L92.5215 23.5166L92.4994 24.1315L92.4782 24.7456L91.442 24.1383C91.0594 23.9121 90.6749 23.689 90.2886 23.4691L90.1697 23.4071V25.5227H90.6853L90.6972 24.8968L90.7091 24.27L91.8523 24.9384C92.4808 25.3062 93.0005 25.6077 93.0065 25.6085C93.0124 25.6085 93.0175 25.1329 93.0175 24.5503ZM104.796 24.5528V23.4954H104.28L104.269 24.1222L104.257 24.749L103.178 24.1188C102.585 23.7723 102.065 23.4699 102.024 23.4478C101.953 23.4088 101.948 23.4699 101.948 24.4653V25.5236H102.464L102.476 24.9002L102.488 24.2768L103.631 24.9426C104.259 25.3087 104.779 25.6085 104.786 25.6094C104.791 25.6094 104.796 25.1337 104.796 24.5528ZM123.521 24.5528V23.4954H123.004V24.1214C123.004 24.4653 122.995 24.7473 122.983 24.7473C122.966 24.7473 121.204 23.7239 120.814 23.4878L120.674 23.4028V25.5236H121.189L121.202 24.9019L121.213 24.281L122.335 24.9409C122.952 25.3045 123.471 25.6034 123.49 25.606C123.507 25.6085 123.521 25.1346 123.521 24.5528ZM41.8957 25.5041C42.1522 25.4505 42.537 25.2934 42.537 25.2442C42.537 25.234 42.4835 25.1363 42.4181 25.0284C42.334 24.89 42.2805 24.8407 42.2346 24.8611C41.8584 25.0276 41.6741 25.0641 41.1993 25.065C40.7848 25.0658 40.6701 25.0514 40.5011 24.9749C40.0714 24.7804 40.0501 24.2742 40.4638 24.0678C40.5886 24.0058 40.7296 23.9914 41.2205 23.9923C41.7547 23.9923 41.849 24.0041 42.0359 24.0891C42.1514 24.1426 42.2609 24.1859 42.2796 24.1859C42.2975 24.1859 42.3663 24.0959 42.4308 23.9846C42.5446 23.7901 42.5463 23.7816 42.4673 23.7239C42.4223 23.6916 42.2499 23.6219 42.0834 23.571C41.6469 23.4351 40.7304 23.4351 40.3644 23.571C39.8624 23.7578 39.6374 24.0526 39.6374 24.5256C39.6374 25.2017 40.1673 25.5584 41.178 25.5635C41.415 25.5635 41.7386 25.538 41.8957 25.5041ZM65.8688 25.5015C66.2 25.4234 66.4642 25.2943 66.5262 25.1788C66.5517 25.1303 66.567 24.9325 66.5602 24.7363L66.5474 24.3804L65.8246 24.3685L65.1027 24.3566V24.7906H65.5766C66.0497 24.7906 66.0514 24.7906 66.0514 24.8951C66.0514 24.9851 66.0217 25.0055 65.8331 25.0454C65.7142 25.0709 65.4085 25.0921 65.1537 25.0921C64.757 25.0921 64.6611 25.0768 64.4683 24.9877C63.996 24.7668 63.9825 24.2759 64.4428 24.0517C64.7927 23.8818 65.6072 23.8946 66.2451 24.0789C66.3164 24.0993 66.3461 24.0678 66.4132 23.9031C66.5109 23.6636 66.5058 23.6576 66.0794 23.5608C65.1027 23.3374 64.1931 23.4827 63.7922 23.926C63.2869 24.4857 63.6393 25.2696 64.4972 25.4981C64.808 25.5805 65.5265 25.583 65.8688 25.5015ZM88.5815 25.4421C88.8321 25.3452 89.0597 25.1363 89.137 24.9342C89.159 24.8756 89.1777 24.5282 89.1777 24.1613V23.4962H88.6596V24.7558L88.5169 24.8985C88.3437 25.0717 88.1398 25.1108 87.5691 25.0828C86.8591 25.048 86.8047 24.9775 86.8047 24.1027V23.4962H86.2866V24.1332C86.2866 24.8458 86.318 25.008 86.4905 25.1898C86.7614 25.4743 87.1105 25.5695 87.818 25.5508C88.2248 25.5397 88.3887 25.5168 88.5815 25.4421ZM96.4989 25.4624C96.6229 25.4242 96.7826 25.3427 96.8556 25.2815C96.9847 25.1728 96.9864 25.1652 96.9864 24.7634V24.3566L96.2645 24.3685L95.5417 24.3804V24.7685L96.0055 24.7813C96.4607 24.7932 96.4692 24.7957 96.4692 24.8951C96.4692 24.9511 96.4352 25.0114 96.3928 25.0293C96.2594 25.0879 95.2513 25.1057 95.0576 25.0531C94.824 24.9894 94.6329 24.8271 94.5701 24.6377C94.4988 24.4229 94.6151 24.1995 94.8725 24.0577C95.202 23.8759 96.0072 23.8861 96.6671 24.0797C96.7435 24.1027 96.7715 24.0729 96.8471 23.8988C96.9525 23.6559 96.955 23.6585 96.5499 23.5616C96.1643 23.4691 95.4228 23.4325 95.1103 23.4903C94.7247 23.5616 94.3204 23.7816 94.1624 24.0067C94.0452 24.174 94.0316 24.2275 94.0316 24.5095C94.0316 24.794 94.0444 24.8433 94.165 25.0106C94.3178 25.2212 94.6516 25.4268 94.9752 25.5091C95.2725 25.5847 96.1983 25.5567 96.4989 25.4624ZM115.526 25.4624C115.65 25.4242 115.81 25.3427 115.883 25.2815C116.012 25.1728 116.014 25.1643 116.014 24.7651V24.3592H114.59V24.7906H115.043C115.492 24.7906 115.497 24.7906 115.497 24.8934C115.497 24.9511 115.463 25.0123 115.42 25.0293C115.379 25.0471 115.1 25.0717 114.8 25.0819C114.162 25.1057 113.887 25.042 113.707 24.8271C113.579 24.6743 113.559 24.3914 113.666 24.2386C113.905 23.8963 114.823 23.8258 115.7 24.0814C115.785 24.1069 115.809 24.0823 115.886 23.9031C115.991 23.6593 115.988 23.6568 115.568 23.5608C114.375 23.289 113.28 23.5803 113.088 24.2233C112.912 24.8068 113.26 25.296 113.997 25.5032C114.294 25.5864 115.207 25.5627 115.526 25.4624ZM36.4456 25.3945L36.5424 25.2654H37.3493L38.1578 25.2645L38.2657 25.3962C38.371 25.5236 38.3838 25.5278 38.6904 25.5151L39.008 25.5024L38.1944 24.4798C37.7468 23.9175 37.368 23.4614 37.3527 23.4657C37.3187 23.4759 35.7194 25.4701 35.7194 25.5015C35.7194 25.5142 35.8621 25.5236 36.0354 25.5236C36.336 25.5236 36.3547 25.5176 36.4456 25.3945ZM36.928 24.8085C36.928 24.766 37.3255 24.2946 37.362 24.2946C37.3943 24.2946 37.7909 24.7787 37.7909 24.8169C37.7909 24.8263 37.5964 24.8339 37.3595 24.8339C37.1217 24.8339 36.928 24.8229 36.928 24.8085ZM43.9604 25.1354V24.7473H45.902V25.5236H46.4201V23.4962H45.902V24.2725H43.9604V23.4911L43.7124 23.5047L43.4644 23.5175L43.4525 24.5205L43.4415 25.5236H43.9604V25.1354ZM47.9302 25.1354V24.7473H49.8717V25.5236H50.389V23.4962H49.8717V24.2725H47.9302V23.4962H47.4121V25.5236H47.9302V25.1354ZM51.8991 25.3945L51.9917 25.2654H53.6173L53.7268 25.3945C53.8288 25.5159 53.8542 25.5236 54.1405 25.5236C54.3078 25.5236 54.4454 25.5117 54.4454 25.4981C54.4454 25.459 52.8376 23.4529 52.8079 23.4546C52.7866 23.4563 51.3606 25.2391 51.2179 25.4429C51.1636 25.5193 51.1772 25.5236 51.4838 25.5236C51.7938 25.5236 51.8099 25.5185 51.8991 25.3945ZM52.4044 24.7762C52.4707 24.6658 52.7841 24.2768 52.8087 24.2751C52.8223 24.2734 52.9344 24.3991 53.0576 24.5528L53.2826 24.8331H52.8266C52.4571 24.8331 52.3764 24.8229 52.4044 24.7762ZM58.0176 25.2977L58.0049 25.0709L56.9364 25.059L55.8688 25.048V23.4962H55.3508V25.5236H58.0304L58.0176 25.2977ZM59.9677 24.7473V23.971H61.0888V23.4954H58.371V23.971H59.4496V25.5236H59.9677V24.7473ZM62.5564 24.5095V23.4962H62.0383V25.5236H62.5564V24.5095ZM70.236 25.2866V25.0488H68.0363V24.704H70.1503V24.2725H68.0363V23.971H70.236V23.4954L68.8882 23.5064L67.5394 23.5175L67.5284 24.5205L67.5165 25.5236H70.236V25.2866ZM73.6019 25.1354V24.7473H75.5435V25.5236H76.0624L76.0514 24.5214L76.0395 23.5175L75.7915 23.5047L75.5435 23.492V24.2734H73.6019V23.4962H73.0838V25.5244H73.6019V25.1354ZM79.7714 25.2866V25.0488H77.5708V24.704H79.6856V24.2725H77.5708V23.971H79.7714V23.4954H77.0536V25.5236H79.7714V25.2866ZM81.2382 24.5103V23.4962H80.721V25.5236H81.2382V24.5103ZM85.3286 25.2977L85.3158 25.0709L84.4546 25.0497L83.5943 25.0276L84.4657 24.2802C84.9447 23.8691 85.3371 23.5243 85.3371 23.5141C85.3371 23.5047 84.6771 23.4962 83.8703 23.4962H82.4035V23.926L83.2443 23.9379L84.0852 23.9489L83.1798 24.7227C82.6812 25.149 82.2744 25.5032 82.2744 25.5108C82.2744 25.5185 82.9641 25.5244 83.8083 25.5244H85.3422L85.3286 25.2977ZM98.5118 25.3945L98.6205 25.2654H100.224L100.342 25.397C100.455 25.5236 100.472 25.5278 100.768 25.5159L101.078 25.5024L100.302 24.5316C100.028 24.1855 99.751 23.8423 99.4699 23.5022C99.4223 23.4538 99.2991 23.5871 98.7318 24.3006C98.3581 24.7719 97.9844 25.2399 97.902 25.341L97.7534 25.5236H98.0778C98.3861 25.5236 98.4091 25.5168 98.5118 25.3945ZM99.0189 24.7575C99.2473 24.4611 99.4155 24.2759 99.4418 24.2912C99.4588 24.3023 99.565 24.428 99.6779 24.5715L99.8835 24.8339H99.4223C98.9891 24.8339 98.9645 24.8288 99.0189 24.7575ZM108.497 25.2977L108.485 25.0709L107.417 25.059L106.349 25.048V23.4962H105.831V25.5236H108.511L108.497 25.2977ZM110.002 25.3945L110.111 25.2654H111.715L111.825 25.397C111.933 25.5244 111.946 25.5287 112.25 25.5159L112.563 25.5024L111.739 24.473C111.059 23.6236 110.904 23.4538 110.859 23.5022C110.729 23.6423 109.283 25.4726 109.283 25.4964C109.283 25.5117 109.421 25.5236 109.589 25.5236C109.874 25.5236 109.9 25.5151 110.002 25.3945ZM110.672 24.5469L110.898 24.2606L111.044 24.428C111.123 24.5214 111.228 24.6496 111.275 24.715L111.36 24.8339H110.447L110.672 24.5469ZM119.716 25.2977L119.703 25.0709L118.614 25.059L117.524 25.048V24.704H119.643L119.629 24.4993L119.617 24.2946L118.57 24.2827L117.524 24.2708V23.971H119.729L119.716 23.7442L119.703 23.5175L118.355 23.5064L117.006 23.4945V25.5244H119.729L119.716 25.2977ZM26.1212 25.07C27.0554 24.8322 27.8445 24.0551 28.112 23.1081C28.1876 22.8389 28.191 22.3989 28.191 12.9034V2.97992L28.0704 2.62575C27.8382 1.9287 27.3408 1.35112 26.686 1.01797C26.0363 0.691832 27.1667 0.716463 12.9388 0.716463C-1.30441 0.716463 -0.147628 0.690983 -0.824541 1.02222C-1.11586 1.16491 -1.26194 1.27362 -1.53628 1.55135C-1.8811 1.90042 -2.01615 2.11785 -2.22083 2.65208L-2.31341 2.89329L-2.32445 12.7845C-2.33719 23.6287 -2.35163 22.9883 -2.08324 23.5565C-1.81311 24.1281 -1.35792 24.5916 -0.791418 24.8722C-0.24615 25.1465 -1.24581 25.127 12.9193 25.132C24.3495 25.1354 25.8944 25.1278 26.1212 25.07ZM-0.0559011 23.6865C-0.330233 23.6016 -0.697142 23.261 -0.829637 22.968L-0.932406 22.7403V3.10902L-0.810952 2.86271C-0.678457 2.59093 -0.44829 2.3701 -0.139984 2.21722L0.0596075 2.117H25.7747L26.0125 2.22996C26.2826 2.35736 26.5391 2.59857 26.6749 2.84997L26.7667 3.02323L26.7786 12.8771L26.7896 22.731L26.6877 22.9535C26.5686 23.2325 26.358 23.4626 26.0906 23.6058L25.8613 23.7332L13.0033 23.7409C1.9035 23.7476 0.11906 23.7409 -0.0559011 23.6865ZM10.418 20.5882C11.9111 20.2731 13.1817 19.6029 14.2705 18.5557C16.4576 16.4528 17.2202 13.3392 16.2563 10.4446C15.0451 6.80359 11.3268 4.58769 7.53028 5.24507C4.35805 5.79374 1.86273 8.22621 1.20025 11.4146C1.08135 11.987 1.03718 13.2814 1.11532 13.9031C1.53744 17.2537 4.10155 19.9868 7.39864 20.6009C8.073 20.7266 8.08489 20.7283 9.03444 20.7113C9.75637 20.7003 9.98229 20.6799 10.418 20.5882ZM7.92862 19.2904C5.12074 18.8317 3.00847 16.7526 2.53285 13.9821C2.45811 13.5447 2.44791 13.3502 2.4683 12.731C2.49378 11.931 2.55153 11.5946 2.7783 10.9126C4.10835 6.90635 8.90534 5.25441 12.4182 7.59176C13.1766 8.10175 13.819 8.76595 14.3034 9.541C14.7878 10.3161 15.1034 11.1845 15.2294 12.0898C15.294 12.5824 15.2558 13.7876 15.1615 14.2191C14.6009 16.7755 12.6874 18.6823 10.1394 19.2275C9.5916 19.3447 8.45775 19.377 7.92862 19.2904ZM5.88938 16.7483C6.7472 16.5199 7.69335 15.6069 8.30742 14.4135L8.46284 14.1112L8.86372 14.1137L9.26461 14.1163L9.44042 14.4501C9.74617 15.0302 10.0468 15.4353 10.5182 15.9024C11.2002 16.5776 11.7693 16.8452 12.4241 16.7985C12.836 16.7687 13.1222 16.6192 13.4628 16.2549C13.9079 15.781 14.1805 15.1083 14.1346 14.6004C14.0718 13.9065 13.4976 13.2958 12.6008 12.9688C12.0402 12.7642 11.6155 12.6979 10.7866 12.6869L10.0358 12.6767L9.98059 12.5153C9.9326 12.3964 9.86797 12.2848 9.78864 12.1841C9.66549 12.0312 9.65784 12.0057 9.71475 11.9412C9.97974 11.6354 10.4494 10.6714 10.604 10.1143C10.9013 9.04071 10.7662 8.19478 10.2159 7.68519C9.83281 7.33102 9.60009 7.25543 8.88241 7.25373C8.12141 7.25118 7.86662 7.33611 7.47677 7.72425C7.07759 8.12174 7.00625 8.33577 7.0088 9.12819C7.01049 9.68365 7.02408 9.79746 7.1294 10.1423C7.27209 10.6094 7.59313 11.2948 7.86492 11.7161L8.06451 12.0235L7.93541 12.1832C7.86492 12.2707 7.78083 12.421 7.74771 12.5153L7.68826 12.6877L7.17441 12.6733C4.93134 12.6104 3.36604 13.6424 3.61574 15.02C3.71256 15.5593 4.19328 16.3075 4.61369 16.5725C4.97806 16.8019 5.44519 16.8673 5.88938 16.7483ZM5.2439 15.2892C5.16503 15.1785 5.09705 15.0605 5.04091 14.9367C4.95767 14.7473 4.95597 14.7244 5.01797 14.6284C5.10885 14.49 5.39168 14.3312 5.73481 14.2275C6.04311 14.1341 6.84233 14.0195 6.88564 14.0628C6.90093 14.0781 6.83638 14.2004 6.74381 14.3363C6.36501 14.8875 5.82144 15.3614 5.51058 15.4124C5.37299 15.4344 5.34412 15.4209 5.2439 15.2892ZM11.9892 15.3317C11.8831 15.2782 11.658 15.099 11.4898 14.9325C11.1883 14.6335 10.7951 14.1052 10.8401 14.0602C10.8826 14.0178 11.6724 14.1307 11.974 14.2233C12.3264 14.3303 12.6127 14.4883 12.7018 14.6233C12.7587 14.7108 12.7587 14.7439 12.7001 14.9155C12.6152 15.1669 12.3995 15.4276 12.278 15.4276C12.2262 15.4276 12.0963 15.3843 11.9892 15.3317ZM8.71934 10.4115C8.49597 9.95543 8.39914 9.60891 8.37791 9.19274C8.34988 8.65766 8.37111 8.63219 8.86203 8.63219C9.18137 8.63219 9.24422 8.64408 9.29603 8.71542C9.38606 8.83857 9.37417 9.35241 9.2731 9.71762C9.19326 10.0038 8.91044 10.6816 8.86967 10.6816C8.86033 10.6816 8.79153 10.5602 8.71934 10.4115ZM24.4582 20.2977C24.9372 20.0293 24.9016 19.3193 24.3988 19.0908C24.2323 19.0152 24.0624 19.0101 21.5637 19.0093H18.9062L18.7193 19.1078C18.598 19.1705 18.4978 19.2676 18.4313 19.3869C18.3648 19.5063 18.335 19.6426 18.3456 19.7787C18.3685 19.9936 18.4705 20.1524 18.6768 20.2926L18.8195 20.3894H21.5578C24.2671 20.3894 24.2977 20.3886 24.4582 20.2977ZM24.4149 16.9267C24.6688 16.7968 24.7716 16.6464 24.7928 16.3678C24.8141 16.1037 24.7122 15.9092 24.4616 15.741L24.3172 15.6434H18.8187L18.676 15.7402C18.4696 15.8812 18.3677 16.0392 18.3448 16.2532C18.3319 16.39 18.3607 16.5276 18.4274 16.6478C18.4941 16.7679 18.5956 16.8652 18.7185 16.9267L18.9104 17.0235H24.2238L24.4149 16.9267ZM24.4625 13.5175C24.7088 13.351 24.8141 13.154 24.7937 12.8992C24.7716 12.6249 24.6357 12.4253 24.3979 12.3166C24.2323 12.2418 24.0624 12.2367 21.5662 12.2359L18.9113 12.235L18.7185 12.3319C18.5959 12.3936 18.4948 12.491 18.4284 12.6111C18.362 12.7313 18.3335 12.8687 18.3465 13.0054C18.3685 13.2202 18.4705 13.3782 18.6768 13.5184L18.8195 13.6152H24.3164L24.4625 13.5175ZM24.3979 10.2111C24.5095 10.162 24.6055 10.0832 24.6754 9.98328C24.7453 9.8834 24.7865 9.76625 24.7945 9.64458C24.807 9.51667 24.7818 9.3879 24.7221 9.27412C24.6623 9.16034 24.5706 9.06652 24.4582 9.00419C24.2977 8.91331 24.2671 8.91246 21.5578 8.91246H18.8195L18.6768 9.00929C18.4705 9.15027 18.3685 9.30825 18.3456 9.52228C18.335 9.65847 18.3648 9.79476 18.4313 9.9141C18.4978 10.0334 18.598 10.1305 18.7193 10.1932L18.9062 10.2935L21.5646 10.2926C24.0616 10.2918 24.2314 10.2867 24.3979 10.2111ZM24.4591 6.74413C24.6654 6.60399 24.7674 6.44687 24.792 6.23029C24.8075 6.1115 24.7905 5.99071 24.7426 5.88088C24.6947 5.77106 24.6178 5.67634 24.5202 5.60688L24.358 5.48203L21.6147 5.47184L18.8713 5.4608L18.6989 5.55847C18.2335 5.82007 18.2309 6.47659 18.6938 6.75942C18.8212 6.83756 18.9537 6.84096 21.573 6.84096H24.3164L24.4591 6.74413ZM40.9037 19.6964C42.8334 19.501 44.4556 18.6882 45.8468 17.2197C47.2006 15.7912 47.8937 14.163 47.9981 12.1662C48.117 9.90278 47.3127 7.82872 45.6871 6.20566C44.3452 4.86712 42.8792 4.1333 41.0914 3.90653C40.6379 3.84963 39.4879 3.84963 39.0106 3.90738C37.2482 4.12056 35.7169 4.8994 34.3681 6.26596C32.8563 7.799 32.1285 9.60042 32.1293 11.8036C32.1302 13.1209 32.351 14.1392 32.8733 15.2331C33.4925 16.5309 34.6484 17.8041 35.9369 18.6067C37.3391 19.4815 39.1388 19.8756 40.9037 19.6964ZM39.0029 17.5178C37.9106 17.3216 36.9006 16.8069 36.0999 16.0383C34.8557 14.8544 34.2526 13.4742 34.2526 11.8095C34.2526 10.3172 34.7172 9.06789 35.6744 7.985C36.562 6.98194 37.6448 6.3407 38.8908 6.08251C39.4318 5.9704 40.6769 5.9687 41.1993 6.07911C42.3697 6.32711 43.3048 6.83501 44.1541 7.68349C45.0765 8.60501 45.6047 9.61825 45.7958 10.8345C45.8842 11.3984 45.8612 12.5433 45.7525 13.0325C45.4722 14.2819 44.8972 15.2467 43.8747 16.1768C43.1884 16.8002 42.2915 17.2622 41.3428 17.4796C40.9148 17.5781 39.4794 17.6011 39.0029 17.5178ZM51.0676 19.6191C51.2884 19.5061 51.5254 19.2326 51.5908 19.0144C51.6256 18.8954 51.6409 18.1098 51.6409 16.3067V13.7655L52.3297 13.0776C52.7518 12.6554 53.0346 12.4049 53.0576 12.4304C53.078 12.4533 54.2449 14.0356 55.6514 15.9449C57.0579 17.8559 58.2588 19.4619 58.3217 19.5155C58.4907 19.6581 58.8627 19.7575 59.1167 19.7278C59.6857 19.6598 60.101 19.1299 60.0407 18.5489C60.0275 18.4188 59.9915 18.2921 59.9346 18.1744C59.8896 18.0979 58.6776 16.4434 57.2431 14.4985C55.8077 12.5535 54.6186 10.9356 54.5991 10.9033C54.5736 10.8608 55.3117 10.0947 57.2388 8.16336C60.2089 5.18732 60.0891 5.33 60.0416 4.80937C60.0311 4.64836 59.9819 4.49225 59.8982 4.3543C59.8145 4.21635 59.6988 4.10063 59.5609 4.01695C59.2721 3.83859 58.8237 3.80886 58.54 3.9507C58.4058 4.01695 57.3552 5.03868 54.9957 7.39472L51.6426 10.7436L51.6307 7.65631L51.6188 4.56986L51.488 4.35753C51.397 4.21189 51.2716 4.09085 51.1228 4.00505C50.9181 3.8819 50.851 3.86407 50.5835 3.86407C50.3151 3.86407 50.2488 3.88105 50.0442 4.00505C49.8954 4.09082 49.7699 4.21186 49.679 4.35753L49.5482 4.56986L49.5354 11.7135C49.5269 16.4935 49.5371 18.9082 49.5668 19.011C49.6492 19.2955 49.9652 19.5936 50.3024 19.704C50.4756 19.7609 50.8773 19.7159 51.0676 19.6191ZM68.8185 19.6972C69.7404 19.6156 70.6386 19.3606 71.4659 18.9456C72.6804 18.3536 73.8576 17.3106 74.6542 16.1215C75.6369 14.6522 76.076 12.8041 75.8858 10.9339C75.6989 9.09931 74.949 7.54335 73.5985 6.19292C72.3194 4.91383 70.879 4.18002 69.1489 3.92522C68.4669 3.82585 67.0349 3.85812 66.4183 3.98722C64.8462 4.31761 63.6801 4.93252 62.5216 6.04259C61.3266 7.18918 60.6276 8.36295 60.2709 9.82039C60.0858 10.5797 60.0399 11.0825 60.0671 12.0796C60.0849 12.7837 60.1095 13.0444 60.1996 13.4674C60.5716 15.2204 61.4905 16.722 62.9234 17.9221C64.5659 19.298 66.6264 19.918 68.8185 19.6972ZM66.9356 17.5161C65.6989 17.2987 64.6254 16.7076 63.7319 15.7512C62.9505 14.9172 62.4443 13.9218 62.2481 12.838C62.1607 12.3522 62.1717 11.0969 62.2694 10.6383C62.5267 9.41781 63.0423 8.50648 63.9901 7.59261C65.18 6.44602 66.5508 5.92623 68.2087 5.99163C69.1226 6.0273 69.8785 6.22095 70.6378 6.61334C71.7224 7.17389 72.7823 8.27462 73.2724 9.35071C73.6291 10.1321 73.7735 10.843 73.7735 11.8087C73.7743 12.8296 73.6121 13.5438 73.1892 14.3906C72.3704 16.0247 70.7847 17.2129 69.0122 17.5187C68.5323 17.6011 67.4129 17.6002 66.9356 17.5161ZM78.8329 19.6904C79.058 19.6225 79.3969 19.3142 79.4971 19.0848C79.5727 18.9116 79.5786 18.7154 79.5905 15.8701L79.6024 12.838H86.6314L86.6323 15.8914C86.6331 19.3269 86.6153 19.1307 86.9635 19.445C87.536 19.9613 88.4074 19.7584 88.6766 19.0458C88.742 18.8734 88.7471 18.2618 88.7361 11.7169C88.725 5.05737 88.7191 4.56731 88.6503 4.44076C88.5573 4.26426 88.4172 4.11703 88.2455 4.01551C88.0738 3.91398 87.8773 3.86214 87.6778 3.86577C87.2226 3.86407 86.9032 4.07045 86.7121 4.49002C86.6382 4.65139 86.6331 4.85353 86.6323 7.69368V10.7249H79.5982V7.83976C79.5982 6.0859 79.5812 4.86372 79.5549 4.72274C79.4978 4.4355 79.33 4.18227 79.0877 4.01779C78.8533 3.85303 78.4108 3.81226 78.1085 3.92692C77.8638 4.02034 77.5564 4.35753 77.4884 4.60638C77.4502 4.74652 77.4409 6.53775 77.4502 11.8894L77.4621 18.9872L77.5819 19.191C77.8452 19.6386 78.342 19.8373 78.8312 19.6904H78.8329ZM100.848 19.6276C101.231 19.4203 101.431 19.0933 101.43 18.6763C101.43 18.2364 101.186 17.8584 100.784 17.675C100.648 17.6138 100.137 17.607 95.7999 17.607C90.9791 17.607 90.9673 17.607 90.7736 17.697C90.3719 17.8847 90.1519 18.2253 90.1494 18.6653C90.1477 19.0033 90.2793 19.2972 90.5205 19.4925C90.8407 19.7516 90.5749 19.7397 95.8432 19.7303L100.676 19.7201L100.848 19.6276ZM105.116 19.5953C105.338 19.4653 105.514 19.2556 105.598 19.0194C105.675 18.802 105.688 4.92233 105.61 4.61487C105.546 4.36007 105.244 4.02374 104.991 3.92692C104.69 3.81226 104.246 3.85303 104.012 4.01779C103.891 4.0999 103.787 4.20522 103.707 4.32768C103.626 4.45013 103.571 4.58729 103.544 4.73123C103.515 4.8909 103.504 7.33526 103.512 11.9581L103.523 18.9439L103.619 19.1222C103.733 19.3371 104.05 19.6242 104.245 19.6904C104.481 19.7703 104.895 19.7252 105.116 19.5953ZM109.176 19.6225C109.398 19.5078 109.558 19.3362 109.669 19.095C109.754 18.9031 109.756 18.8334 109.759 14.1766L109.763 9.45178L112.209 14.3312C113.554 17.015 114.7 19.2708 114.755 19.3464C114.81 19.4212 114.945 19.5367 115.057 19.6012C115.229 19.7032 115.307 19.7201 115.583 19.7201C115.855 19.7201 115.937 19.7032 116.101 19.6063C116.208 19.5435 116.337 19.4339 116.389 19.3634C116.44 19.2929 117.587 17.0337 118.935 14.3439L121.386 9.45178L121.407 14.2411C121.432 19.6301 121.398 19.1426 121.772 19.473C122.303 19.9401 123.119 19.7643 123.42 19.118L123.521 18.9005V11.8197C123.521 4.10612 123.536 4.55712 123.285 4.22758C123.12 4.01185 122.782 3.86407 122.454 3.86407C122.137 3.86407 121.92 3.95664 121.701 4.18426C121.604 4.28533 120.595 6.25152 118.564 10.2969L115.569 16.2617L112.588 10.3079C110.949 7.0346 109.561 4.29552 109.505 4.22248C109.331 3.99486 109.038 3.86407 108.698 3.86407C108.216 3.86407 107.818 4.13585 107.694 4.54862C107.657 4.67263 107.644 6.55303 107.645 11.8299C107.645 18.6364 107.649 18.9515 107.725 19.118C107.818 19.3218 108.141 19.6216 108.344 19.6904C108.55 19.7601 108.976 19.7252 109.177 19.6225H109.176ZM100.071 12.7565C100.611 12.5068 100.831 11.8163 100.542 11.2855C100.475 11.1625 100.389 11.0516 100.285 10.9576C99.971 10.7173 100.116 10.7249 95.7838 10.7249H91.7877L91.572 10.8268C91.1074 11.0426 90.8483 11.5275 90.9469 11.9989C91.0114 12.3098 91.2076 12.5646 91.5023 12.7183L91.7325 12.8389L95.8161 12.838C99.7017 12.8372 99.9073 12.833 100.071 12.7565ZM100.805 5.87527C101.218 5.67993 101.431 5.35124 101.43 4.91214C101.43 4.47218 101.195 4.10867 100.789 3.91672C100.644 3.84878 100.273 3.84283 95.7999 3.84283C90.9791 3.84283 90.9673 3.84283 90.7736 3.93371C90.2963 4.15708 90.0491 4.65564 90.1689 5.15504C90.2266 5.39455 90.4092 5.67653 90.5791 5.78779C90.8696 5.97889 90.7643 5.97464 95.7999 5.97634L100.59 5.97804L100.805 5.87527ZM38.332 2.61556C38.5842 2.50514 38.8152 2.28687 38.9452 2.03462C39.1065 1.72207 39.1074 1.26088 38.946 0.951726C38.4704 0.037851 37.1896 0.0319057 36.7369 0.940685C36.5968 1.22181 36.5823 1.71527 36.7063 1.9879C36.8389 2.28652 37.0845 2.52037 37.3892 2.63819C37.694 2.756 38.033 2.74817 38.332 2.61641V2.61556ZM42.8674 2.61301C43.0856 2.51788 43.3515 2.25884 43.4661 2.02952C43.5298 1.89957 43.5511 1.76963 43.5511 1.49105C43.5511 1.06639 43.4797 0.880383 43.213 0.614544C42.9693 0.370787 42.7077 0.26632 42.3425 0.267169C41.9594 0.268018 41.7021 0.386075 41.4362 0.680791C41.2336 0.897811 41.1195 1.18279 41.1164 1.47968C41.1132 1.77658 41.2213 2.06391 41.4193 2.28517C41.7938 2.70983 42.3518 2.83723 42.8665 2.61301H42.8674Z" fill="white"/>
</g>
<defs>
<clipPath id="clip0_233_40">
<rect width="27.5495" height="22" fill="white" transform="translate(0 1)"/>
</clipPath>
<clipPath id="clip1_233_40">
<rect width="91.6854" height="20" fill="white" transform="translate(32)"/>
</clipPath>
</defs>
</svg>
