<svg width="561" height="113" fill="none" xmlns="http://www.w3.org/2000/svg"><path d="M166.288 108.26v-4.706h-2.305v2.805c0 2.166-.053 2.785-.239 2.714-.132-.053-2.46-1.391-5.174-2.979-2.713-1.587-4.981-2.834-5.038-2.774-.06.061-.109 2.166-.109 4.687v4.573h2.305v-2.786c0-1.53.03-2.781.068-2.781.038 0 2.351 1.334 5.14 2.963 2.782 1.633 5.129 2.971 5.208 2.978.076.008.144-2.105.144-4.694Zm258.238-.011v-4.713l-1.103.056-1.104.057-.098 2.736-.095 2.733-4.611-2.702c-1.702-1.007-3.413-2-5.132-2.979l-.529-.276v9.415h2.294l.053-2.785.053-2.79 5.087 2.975c2.797 1.636 5.11 2.978 5.136 2.982.027 0 .049-2.117.049-4.709Zm52.414.011v-4.706h-2.294l-.053 2.79-.053 2.789-4.799-2.804a675.213 675.213 0 0 0-5.137-2.986c-.314-.174-.336.098-.336 4.528v4.709h2.294l.053-2.774.053-2.774 5.087 2.963c2.797 1.629 5.11 2.963 5.14 2.967.023 0 .045-2.117.045-4.702Zm83.327 0v-4.706h-2.302v2.786c0 1.531-.037 2.785-.09 2.785-.076 0-7.918-4.554-9.653-5.605l-.624-.377v9.437h2.291l.056-2.767.053-2.762 4.989 2.936c2.748 1.618 5.057 2.948 5.14 2.96.076.011.14-2.098.14-4.687Zm-363.233 4.233c1.142-.238 2.854-.937 2.854-1.157 0-.045-.238-.48-.529-.96-.374-.616-.613-.835-.817-.744-1.674.741-2.494.903-4.607.907-1.844.004-2.355-.06-3.107-.401-1.912-.865-2.007-3.118-.166-4.036.556-.276 1.183-.34 3.368-.337 2.377 0 2.796.053 3.628.431.514.238 1.002.431 1.085.431.079 0 .385-.4.672-.896.507-.865.514-.903.163-1.16-.2-.143-.968-.453-1.708-.68-1.943-.605-6.021-.605-7.65 0-2.234.831-3.235 2.143-3.235 4.248 0 3.008 2.358 4.596 6.856 4.619 1.054 0 2.494-.114 3.193-.265Zm106.681-.011c1.474-.348 2.649-.923 2.925-1.437.113-.215.181-1.096.151-1.969l-.057-1.583-3.216-.053-3.213-.053v1.931h2.109c2.106 0 2.113 0 2.113.465 0 .401-.132.491-.971.669-.529.113-1.89.208-3.024.208-1.765 0-2.192-.068-3.05-.465-2.101-.983-2.162-3.167-.113-4.165 1.557-.756 5.181-.699 8.02.121.317.091.45-.049.748-.782.435-1.066.412-1.093-1.485-1.524-4.347-.994-8.394-.347-10.178 1.626-2.249 2.49-.681 5.979 3.137 6.996 1.383.366 4.58.377 6.104.015Zm101.071-.265c1.115-.431 2.128-1.361 2.472-2.26.098-.261.181-1.807.181-3.439v-2.96h-2.305v5.605l-.635.635c-.771.771-1.678.945-4.218.82-3.16-.155-3.402-.468-3.402-4.361v-2.699h-2.305v2.835c0 3.171.14 3.893.907 4.702 1.206 1.266 2.759 1.689 5.907 1.606 1.811-.049 2.54-.151 3.398-.484Zm35.233.091c.551-.17 1.262-.533 1.587-.805.574-.484.582-.518.582-2.306v-1.81l-3.213.053-3.216.053v1.727l2.064.057c2.025.053 2.063.064 2.063.506 0 .25-.151.518-.34.597-.593.261-5.08.34-5.941.106-1.04-.283-1.89-1.005-2.17-1.848-.317-.956.201-1.95 1.346-2.582 1.466-.808 5.049-.763 7.986.099.34.102.465-.03.801-.805.469-1.081.48-1.07-1.323-1.501-1.716-.412-5.015-.574-6.406-.317-1.716.317-3.515 1.296-4.218 2.298-.521.744-.582.982-.582 2.237 0 1.266.057 1.486.593 2.23.681.937 2.166 1.852 3.606 2.219 1.323.336 5.443.211 6.781-.208Zm84.672 0c.552-.17 1.262-.533 1.587-.805.575-.484.582-.522.582-2.298v-1.807h-6.334v1.92h2.014c2 0 2.018 0 2.018.458 0 .257-.151.529-.34.604-.181.08-1.425.189-2.759.235-2.838.105-4.063-.178-4.864-1.134-.571-.681-.661-1.939-.185-2.619 1.066-1.524 5.151-1.837 9.056-.7.374.114.483.004.824-.793.468-1.085.457-1.096-1.414-1.524-5.31-1.209-10.182.087-11.036 2.948-.783 2.597.767 4.774 4.044 5.696 1.323.371 5.386.265 6.807-.181Zm-351.91-.303.431-.574h3.591l3.598-.004.48.586c.468.567.525.586 1.889.529l1.414-.057-3.621-4.55c-1.992-2.502-3.677-4.532-3.745-4.513-.151.046-7.268 8.92-7.268 9.06 0 .056.635.098 1.406.098 1.338 0 1.421-.027 1.825-.575Zm2.147-2.607c0-.189 1.769-2.287 1.931-2.287.144 0 1.909 2.154 1.909 2.324 0 .042-.866.076-1.92.076-1.058 0-1.92-.049-1.92-.113Zm31.294 1.455v-1.728h8.64v3.455h2.306v-9.022h-2.306v3.455h-8.64v-3.477l-1.103.06-1.104.057-.053 4.463-.049 4.464h2.309v-1.727Zm17.666 0v-1.728h8.64v3.455h2.301v-9.022h-2.301v3.455h-8.64v-3.455h-2.306v9.022h2.306v-1.727Zm17.661 1.152.412-.574h7.234l.488.574c.453.541.567.575 1.84.575.745 0 1.357-.053 1.357-.113 0-.174-7.154-9.102-7.287-9.094-.094.008-6.44 7.941-7.075 8.848-.242.34-.181.359 1.183.359 1.38 0 1.451-.023 1.848-.575Zm2.249-2.751c.295-.491 1.69-2.222 1.799-2.23.061-.008.56.552 1.108 1.236l1.001 1.247h-2.029c-1.645 0-2.004-.045-1.879-.253Zm24.979 2.321-.057-1.01-4.754-.052-4.751-.05v-6.905h-2.306v9.022h11.925l-.057-1.005Zm8.678-2.45v-3.454h4.989v-2.117h-12.095v2.117h4.8v6.909h2.306v-3.455Zm11.519-1.058v-4.509h-2.305v9.022h2.305v-4.513Zm34.175 3.458v-1.058h-9.789v-1.534h9.407v-1.92h-9.407v-1.342h9.789v-2.117l-5.998.05-6.002.049-.049 4.463-.053 4.464h12.102v-1.055Zm14.978-.672v-1.728h8.64v3.455h2.309l-.049-4.46-.053-4.467-1.104-.057-1.103-.057v3.477h-8.64v-3.458h-2.306v9.026h2.306v-1.731Zm27.454.672v-1.058h-9.792v-1.534h9.41v-1.92h-9.41v-1.342h9.792v-2.117h-12.094v9.026h12.094v-1.055Zm6.527-3.454v-4.513h-2.301v9.022h2.301v-4.509Zm18.203 3.504-.057-1.01-3.833-.094-3.828-.098 3.878-3.326c2.131-1.83 3.877-3.364 3.877-3.409 0-.042-2.936-.08-6.527-.08h-6.527v1.913l3.742.053 3.741.049-4.029 3.443c-2.218 1.897-4.029 3.473-4.029 3.507 0 .034 3.069.061 6.826.061h6.826l-.06-1.009Zm58.665.43.484-.574h7.135l.526.586c.502.563.578.582 1.897.529l1.376-.061-3.451-4.32a271.257 271.257 0 0 0-3.704-4.58c-.211-.216-.759.378-3.284 3.552a720.893 720.893 0 0 1-3.693 4.63l-.661.813h1.444c1.372 0 1.474-.03 1.931-.575Zm2.256-2.834c1.017-1.319 1.765-2.143 1.882-2.075.076.049.549.608 1.051 1.247l.915 1.168h-2.052c-1.928 0-2.038-.023-1.796-.34Zm42.18 2.404-.053-1.01-4.755-.052-4.751-.05v-6.905h-2.305v9.022h11.924l-.06-1.005Zm6.693.43.488-.574h7.135l.492.586c.48.567.54.586 1.889.529l1.395-.061-3.666-4.58c-3.027-3.78-3.715-4.536-3.916-4.32-.578.623-7.014 8.768-7.014 8.874 0 .068.612.121 1.36.121 1.27 0 1.384-.038 1.837-.575Zm2.986-3.772 1.001-1.273.651.744c.355.416.82.987 1.028 1.278l.377.529h-4.059l1.002-1.278Zm40.244 3.342-.057-1.01-4.849-.052-4.849-.05v-1.53h9.43l-.06-.911-.057-.911-4.657-.053-4.656-.053v-1.334h9.812l-.057-1.009-.06-1.009-5.998-.049-6.002-.053v9.033h12.117l-.057-1.009Zm-416.497-1.013c4.157-1.059 7.668-4.517 8.859-8.731.336-1.198.351-3.156.351-45.41V12.26l-.536-1.576a12.441 12.441 0 0 0-6.161-7.155c-2.891-1.451 2.139-1.342-61.175-1.342-63.382 0-58.235-.113-61.247 1.36-1.296.636-1.946 1.12-3.167 2.355C2.227 7.457 1.626 8.424.716 10.802l-.412 1.073-.05 44.016c-.056 48.257-.12 45.407 1.074 47.936a12.486 12.486 0 0 0 5.749 5.854c2.426 1.221-2.022 1.134 61.012 1.157 50.865.015 57.739-.019 58.749-.276ZM10.35 104.405c-1.221-.378-2.854-1.894-3.444-3.198l-.457-1.013V12.835l.54-1.096c.59-1.21 1.614-2.192 2.986-2.872l.889-.446h114.432l1.058.502c1.202.567 2.343 1.64 2.948 2.76l.408.77.053 43.85.049 43.85-.453.99a5.934 5.934 0 0 1-2.657 2.903l-1.021.567-57.218.034c-49.394.03-57.335 0-58.113-.242Zm46.608-13.788c6.645-1.402 12.299-4.384 17.144-9.044 9.732-9.358 13.126-23.214 8.837-36.094-5.39-16.203-21.936-26.064-38.83-23.139-14.117 2.442-25.222 13.267-28.17 27.455-.529 2.547-.725 8.307-.377 11.074 1.878 14.91 13.288 27.072 27.96 29.805 3.001.56 3.054.567 7.28.491 3.212-.049 4.218-.14 6.156-.548Zm-11.077-5.775C33.386 82.802 23.986 73.55 21.869 61.22c-.332-1.946-.377-2.812-.287-5.567.114-3.56.37-5.057 1.38-8.092 5.919-17.828 27.265-25.179 42.897-14.778A28.927 28.927 0 0 1 78.37 52.8c.287 2.192.117 7.555-.302 9.475-2.495 11.376-11.01 19.861-22.348 22.288-2.438.521-7.484.665-9.838.28ZM36.806 73.53c3.817-1.017 8.028-5.08 10.76-10.39l.692-1.345 1.784.011 1.784.011.782 1.486c1.36 2.581 2.699 4.384 4.796 6.463 3.035 3.004 5.568 4.195 8.482 3.987 1.833-.132 3.106-.797 4.622-2.419 1.98-2.109 3.194-5.102 2.99-7.362-.28-3.088-2.835-5.806-6.826-7.26-2.495-.912-4.384-1.206-8.073-1.256l-3.341-.045-.246-.718a6.033 6.033 0 0 0-.854-1.474c-.548-.68-.582-.794-.329-1.08 1.18-1.361 3.27-5.651 3.957-8.13 1.323-4.778.722-8.542-1.727-10.81-1.705-1.576-2.74-1.912-5.934-1.92-3.386-.011-4.52.367-6.255 2.094-1.776 1.769-2.094 2.721-2.082 6.247.007 2.472.068 2.979.536 4.513.635 2.079 2.064 5.129 3.273 7.003l.888 1.369-.574.71c-.314.39-.688 1.058-.835 1.478l-.265.767-2.286-.064c-9.982-.28-16.948 4.313-15.837 10.443.431 2.4 2.57 5.73 4.441 6.909 1.622 1.02 3.7 1.311 5.677.782Zm-2.872-6.493a9.376 9.376 0 0 1-.904-1.569c-.37-.842-.378-.945-.102-1.371.405-.617 1.663-1.323 3.19-1.784 1.372-.416 4.929-.926 5.121-.734.069.068-.219.613-.63 1.217-1.686 2.453-4.105 4.562-5.489 4.789-.612.098-.74.038-1.186-.548Zm30.017.189c-.473-.238-1.474-1.036-2.223-1.776-1.342-1.33-3.092-3.682-2.891-3.882.189-.189 3.704.314 5.045.726 1.569.476 2.843 1.179 3.24 1.78.253.39.253.537-.008 1.3-.378 1.119-1.338 2.279-1.879 2.279-.23 0-.808-.193-1.285-.427ZM49.398 45.33c-.994-2.03-1.425-3.571-1.519-5.423-.125-2.381-.03-2.495 2.154-2.495 1.421 0 1.701.053 1.932.37.4.549.347 2.835-.102 4.46-.356 1.274-1.614 4.29-1.796 4.29-.041 0-.347-.54-.669-1.202Zm70.038 43.994c2.132-1.195 1.973-4.354-.264-5.371-.741-.336-1.497-.36-12.616-.363H94.731l-.832.439a3.09 3.09 0 0 0-1.663 2.985c.102.957.556 1.663 1.474 2.287l.635.43h12.185c12.057 0 12.193-.003 12.907-.407Zm-.192-15.001c1.13-.578 1.587-1.247 1.681-2.487.095-1.175-.359-2.041-1.474-2.79l-.642-.434H94.341l-.634.43c-.919.628-1.372 1.331-1.474 2.284a3.035 3.035 0 0 0 1.662 2.997l.855.43h23.644l.851-.43Zm.211-15.171c1.096-.74 1.565-1.618 1.474-2.752-.098-1.22-.703-2.109-1.761-2.592-.737-.333-1.493-.356-12.601-.36l-11.815-.003-.858.43a3.035 3.035 0 0 0-1.655 2.998c.098.956.552 1.659 1.47 2.283l.635.43h24.461l.65-.434Zm-.287-14.714a2.964 2.964 0 0 0 1.765-2.52 2.936 2.936 0 0 0-1.497-2.85c-.714-.405-.85-.409-12.907-.409H94.345l-.635.431c-.918.628-1.372 1.33-1.474 2.283A3.091 3.091 0 0 0 93.9 44.36l.832.446 11.83-.004c11.111-.004 11.867-.026 12.608-.363Zm.272-15.428c.919-.623 1.372-1.322 1.482-2.286a2.94 2.94 0 0 0-1.21-2.774l-.722-.556-12.207-.045-12.208-.05-.767.435c-2.072 1.164-2.083 4.086-.023 5.344.567.348 1.156.363 12.812.363h12.208l.635-.43ZM192.62 86.65c8.587-.87 15.806-4.487 21.997-11.021 6.024-6.357 9.108-13.603 9.573-22.488.529-10.073-3.05-19.302-10.284-26.525-5.972-5.956-12.495-9.222-20.451-10.231-2.018-.253-7.136-.253-9.26.004-7.842.948-14.657 4.414-20.658 10.495-6.728 6.823-9.967 14.839-9.963 24.643.004 5.862.986 10.393 3.311 15.261 2.755 5.775 7.899 11.441 13.632 15.013 6.24 3.892 14.249 5.646 22.103 4.849Zm-8.459-9.695a25.05 25.05 0 0 1-12.918-6.584c-5.537-5.268-8.22-11.41-8.22-18.818 0-6.64 2.067-12.2 6.326-17.019 3.95-4.463 8.769-7.317 14.313-8.466 2.408-.499 7.949-.506 10.273-.015 5.208 1.104 9.37 3.364 13.149 7.14 4.105 4.1 6.455 8.61 7.306 14.021.393 2.51.291 7.605-.193 9.782-1.247 5.56-3.806 9.853-8.356 13.992-3.054 2.774-7.045 4.83-11.267 5.797-1.905.439-8.292.54-10.413.17Zm53.688 9.35c.983-.502 2.037-1.719 2.328-2.69.155-.53.223-4.025.223-12.05V60.258l3.065-3.062c1.879-1.878 3.137-2.993 3.24-2.88.09.102 5.283 7.143 11.542 15.64 6.259 8.504 11.603 15.65 11.883 15.889.752.635 2.407 1.077 3.538.945 2.532-.303 4.38-2.661 4.112-5.246a4.976 4.976 0 0 0-.473-1.667c-.2-.34-5.593-7.703-11.977-16.358-6.387-8.655-11.679-15.855-11.766-15.998-.113-.19 3.171-3.599 11.747-12.193 13.217-13.243 12.684-12.608 12.472-14.925a4.457 4.457 0 0 0-2.139-3.526c-1.285-.794-3.28-.927-4.543-.295-.597.294-5.272 4.841-15.772 15.325L240.408 46.81l-.053-13.738-.053-13.735-.582-.945a4.664 4.664 0 0 0-1.625-1.569c-.911-.548-1.21-.627-2.4-.627-1.194 0-1.489.076-2.4.627-.662.382-1.22.92-1.625 1.569l-.582.945-.057 31.79c-.038 21.27.007 32.015.14 32.473.366 1.266 1.772 2.592 3.273 3.084.771.253 2.559.053 3.405-.378Zm78.992.349a32.691 32.691 0 0 0 11.78-3.345c5.405-2.635 10.644-7.276 14.189-12.567 4.373-6.539 6.327-14.763 5.48-23.085-.831-8.164-4.169-15.088-10.178-21.098-5.692-5.692-12.102-8.957-19.801-10.09-3.035-.443-9.407-.3-12.151.275-6.996 1.47-12.185 4.207-17.34 9.147-5.318 5.102-8.429 10.325-10.016 16.81-.824 3.38-1.028 5.617-.907 10.054.079 3.133.189 4.294.589 6.176 1.656 7.8 5.745 14.483 12.121 19.823 7.31 6.123 16.479 8.882 26.234 7.9Zm-8.379-9.706c-5.503-.968-10.281-3.598-14.257-7.854-3.477-3.712-5.729-8.141-6.602-12.964-.39-2.162-.341-7.748.094-9.789 1.145-5.43 3.439-9.486 7.657-13.553 5.295-5.102 11.396-7.415 18.773-7.124 4.067.158 7.431 1.02 10.809 2.766 4.827 2.495 9.544 7.393 11.724 12.182 1.588 3.477 2.23 6.64 2.23 10.938.004 4.543-.718 7.721-2.6 11.49-3.643 7.271-10.7 12.558-18.587 13.92-2.136.366-7.117.362-9.241-.012Zm52.943 9.675c1.001-.302 2.509-1.674 2.955-2.695.337-.77.363-1.644.416-14.305l.053-13.493h31.279l.004 13.588c.004 15.288-.076 14.415 1.474 15.813 2.547 2.298 6.425 1.395 7.623-1.776.291-.768.314-3.489.265-32.614-.049-29.635-.076-31.816-.382-32.379a4.788 4.788 0 0 0-4.327-2.558c-2.026-.008-3.447.91-4.298 2.777-.328.719-.351 1.618-.355 14.257v13.489H364.81v-12.84c0-7.804-.075-13.243-.193-13.87a4.955 4.955 0 0 0-2.078-3.137c-1.043-.733-3.013-.915-4.358-.404-1.089.415-2.457 1.916-2.759 3.023-.17.624-.212 8.595-.17 32.41l.053 31.585.533.907c1.171 1.992 3.382 2.876 5.559 2.222h.008Zm97.968-.28c1.705-.922 2.593-2.377 2.589-4.232 0-1.958-1.088-3.64-2.876-4.457-.605-.272-2.88-.302-22.178-.302-21.452 0-21.505 0-22.367.4-1.788.836-2.767 2.352-2.778 4.31-.008 1.504.578 2.811 1.652 3.68 1.424 1.153.241 1.1 23.686 1.059l21.505-.045.767-.412Zm18.992-.143c.987-.578 1.769-1.512 2.143-2.563.344-.967.401-62.732.057-64.1-.287-1.134-1.633-2.63-2.755-3.061-1.342-.51-3.315-.33-4.358.404a4.923 4.923 0 0 0-2.082 3.175c-.129.71-.178 11.588-.144 32.16l.049 31.086.427.794c.51.956 1.92 2.234 2.786 2.528 1.05.356 2.891.155 3.877-.423Zm18.066.12c.991-.51 1.701-1.273 2.193-2.346.381-.854.389-1.164.404-21.887l.015-21.026 10.885 21.714c5.987 11.943 11.085 21.981 11.331 22.318.242.332.847.846 1.342 1.133.767.454 1.115.53 2.343.53 1.209 0 1.572-.076 2.302-.507.476-.28 1.054-.767 1.285-1.08.226-.315 5.329-10.368 11.327-22.338l10.908-21.77.094 21.313c.11 23.98-.042 21.812 1.625 23.282 2.362 2.079 5.991 1.296 7.332-1.58l.45-.968v-31.51c0-34.325.064-32.318-1.051-33.784-.733-.96-2.237-1.618-3.696-1.618-1.413 0-2.377.412-3.352 1.425-.431.45-4.921 9.2-13.962 27.201L524.88 71.364 511.614 44.87c-7.295-14.566-13.47-26.755-13.72-27.08-.771-1.013-2.079-1.595-3.59-1.595-2.143 0-3.916 1.21-4.468 3.046-.166.552-.223 8.92-.219 32.402.004 30.289.019 31.691.359 32.432.412.907 1.852 2.241 2.752 2.547.918.31 2.815.155 3.707-.302h-.004Zm-40.516-30.553c2.4-1.11 3.383-4.183 2.094-6.546a5.498 5.498 0 0 0-1.141-1.459c-1.399-1.07-.753-1.035-20.032-1.035h-17.782l-.96.453c-2.068.96-3.221 3.118-2.782 5.216.287 1.383 1.16 2.517 2.472 3.201l1.024.537 18.172-.004c17.291-.003 18.206-.022 18.935-.363Zm3.266-30.621c1.836-.87 2.785-2.332 2.781-4.286 0-1.958-1.047-3.576-2.853-4.43-.643-.302-2.294-.328-22.201-.328-21.452 0-21.505 0-22.367.404-2.124.994-3.224 3.213-2.691 5.435.257 1.066 1.069 2.32 1.825 2.816 1.293.85.824.831 23.233.839l21.316.007.957-.457ZM181.176 10.639c1.122-.491 2.15-1.462 2.728-2.585.718-1.39.722-3.443.004-4.819-2.116-4.067-7.816-4.093-9.83-.049-.624 1.251-.688 3.447-.136 4.66a5.49 5.49 0 0 0 7.234 2.797v-.004Zm20.182-.011c.971-.424 2.154-1.576 2.665-2.597.283-.578.378-1.156.378-2.396 0-1.89-.318-2.717-1.505-3.9-1.084-1.085-2.248-1.55-3.874-1.546-1.704.004-2.849.529-4.032 1.84a5.29 5.29 0 0 0-.076 7.14c1.667 1.89 4.15 2.457 6.44 1.459h.004Z" fill="#040000"/></svg>